<svg width="50" height="50" viewBox="0 0 50 50" fill="none" xmlns="http://www.w3.org/2000/svg">
<path fill-rule="evenodd" clip-rule="evenodd" d="M12.4891 7.15231L0.00315 14.3135L0.0016 32.1567L0 50H25H50L49.9991 32.1567L49.9983 14.3135L37.5454 7.16117C30.6963 3.2274 25.0661 0.00490706 25.0338 5.47768e-06C25.0014 -0.00484609 19.3563 3.21369 12.4891 7.15231ZM35.5343 10.6475L46 16.6596V31.3292V45.9987H25H4V31.3283V16.6578L14.4856 10.6466C20.2527 7.34043 24.9931 4.63535 25.0198 4.63535C25.0466 4.63535 29.778 7.34083 35.5343 10.6475ZM15.825 15.5091L9.175 19.3303L9.1624 30.7639L9.1498 42.1975H11.1499H13.15V37.3459V32.4943L15.1375 32.4966L17.125 32.4989L17.8125 33.0489L18.5 33.599V37.8982V42.1975H20.5002H22.5005L22.4878 36.9102L22.475 31.6228L20.5206 30.0705L18.5661 28.5181L20.5331 28.505L22.5 28.4919V20.0898C22.5 15.4686 22.4944 11.6877 22.4875 11.6878C22.4806 11.6878 19.4825 13.4074 15.825 15.5091ZM27.55 26.9416V42.1975H29.55H31.55V37.3459V32.4943L33.5375 32.4951L35.525 32.4958L36.2103 33.0328L36.8955 33.5697L36.9103 37.8961L36.925 42.2225H38.925H40.925L40.9378 36.9391L40.9505 31.6557L38.9573 30.0869L36.9642 28.5181L38.9324 28.505L40.9005 28.4919L40.8878 23.9094L40.875 19.3268L34.4 15.6041C30.8388 13.5565 27.8407 11.8373 27.7375 11.7835L27.55 11.6856V26.9416ZM18.5 23.5415V28.443H15.825H13.15L13.152 25.0544L13.154 21.6659L15.7895 20.1541C17.239 19.3227 18.4419 18.6418 18.4625 18.6411C18.4832 18.6404 18.5 20.8456 18.5 23.5415ZM34.25 20.1553L36.875 21.6659L36.8879 25.0795L36.9007 28.4931H34.2254H31.55V23.5665C31.55 20.8568 31.5669 18.641 31.5875 18.6423C31.6082 18.6437 32.8063 19.3245 34.25 20.1553Z" fill="#81AB24"/>
</svg>
