<svg width="413" height="50" viewBox="0 0 413 50" fill="none" xmlns="http://www.w3.org/2000/svg">
<path d="M58.95 42C58.5833 42 58.2833 41.8833 58.05 41.65C57.8167 41.4167 57.7 41.1167 57.7 40.75V8.25C57.7 7.88333 57.8167 7.58333 58.05 7.35C58.2833 7.11666 58.5833 7 58.95 7H72.2C76.3667 7 79.65 7.96666 82.05 9.9C84.45 11.8 85.65 14.55 85.65 18.15C85.65 20.5833 85.0667 22.6167 83.9 24.25C82.7333 25.8833 81.1667 27.1 79.2 27.9L86.25 40.4C86.35 40.6 86.4 40.7833 86.4 40.95C86.4 41.2167 86.3 41.4667 86.1 41.7C85.9 41.9 85.65 42 85.35 42H79.8C79.2 42 78.75 41.85 78.45 41.55C78.15 41.2167 77.9333 40.9167 77.8 40.65L71.7 29.2H65.65V40.75C65.65 41.1167 65.5333 41.4167 65.3 41.65C65.0667 41.8833 64.7667 42 64.4 42H58.95ZM65.65 22.85H72.05C73.8833 22.85 75.2333 22.4333 76.1 21.6C77 20.7667 77.45 19.6 77.45 18.1C77.45 16.6 77.0167 15.4167 76.15 14.55C75.2833 13.6833 73.9167 13.25 72.05 13.25H65.65V22.85ZM93.032 42C92.6654 42 92.3654 41.8833 92.132 41.65C91.8987 41.4167 91.782 41.1167 91.782 40.75V8.25C91.782 7.88333 91.8987 7.58333 92.132 7.35C92.3654 7.11666 92.6654 7 93.032 7H115.682C116.049 7 116.349 7.11666 116.582 7.35C116.815 7.58333 116.932 7.88333 116.932 8.25V12.25C116.932 12.5833 116.815 12.8667 116.582 13.1C116.349 13.3333 116.049 13.45 115.682 13.45H99.482V21.3H114.582C114.949 21.3 115.249 21.4167 115.482 21.65C115.715 21.8833 115.832 22.1833 115.832 22.55V26.25C115.832 26.5833 115.715 26.8667 115.482 27.1C115.249 27.3333 114.949 27.45 114.582 27.45H99.482V35.55H116.082C116.449 35.55 116.749 35.6667 116.982 35.9C117.215 36.1333 117.332 36.4333 117.332 36.8V40.75C117.332 41.1167 117.215 41.4167 116.982 41.65C116.749 41.8833 116.449 42 116.082 42H93.032ZM124.526 42C124.16 42 123.86 41.8833 123.626 41.65C123.393 41.4167 123.276 41.1167 123.276 40.75V8.25C123.276 7.88333 123.393 7.58333 123.626 7.35C123.86 7.11666 124.16 7 124.526 7H129.076C129.576 7 129.943 7.11666 130.176 7.35C130.41 7.58333 130.56 7.76666 130.626 7.9L143.976 28.75V8.25C143.976 7.88333 144.093 7.58333 144.326 7.35C144.56 7.11666 144.843 7 145.176 7H150.276C150.643 7 150.943 7.11666 151.176 7.35C151.41 7.58333 151.526 7.88333 151.526 8.25V40.75C151.526 41.0833 151.41 41.3833 151.176 41.65C150.943 41.8833 150.643 42 150.276 42H145.676C145.176 42 144.81 41.8833 144.576 41.65C144.376 41.3833 144.226 41.2 144.126 41.1L130.826 20.9V40.75C130.826 41.1167 130.71 41.4167 130.476 41.65C130.243 41.8833 129.943 42 129.576 42H124.526ZM160.171 42C159.804 42 159.504 41.8833 159.271 41.65C159.037 41.4167 158.921 41.1167 158.921 40.75V8.25C158.921 7.88333 159.037 7.58333 159.271 7.35C159.504 7.11666 159.804 7 160.171 7H172.721C176.054 7 178.837 7.53333 181.071 8.6C183.304 9.63333 185.004 11.1667 186.171 13.2C187.371 15.2 188.004 17.6833 188.071 20.65C188.104 22.1167 188.121 23.4 188.121 24.5C188.121 25.6 188.104 26.8667 188.071 28.3C187.971 31.4 187.354 33.9667 186.221 36C185.087 38.0333 183.421 39.55 181.221 40.55C179.021 41.5167 176.271 42 172.971 42H160.171ZM166.871 35.55H172.721C174.387 35.55 175.754 35.3 176.821 34.8C177.887 34.3 178.671 33.5167 179.171 32.45C179.704 31.35 179.987 29.9333 180.021 28.2C180.054 27.2333 180.071 26.3667 180.071 25.6C180.104 24.8333 180.104 24.0667 180.071 23.3C180.071 22.5333 180.054 21.6833 180.021 20.75C179.954 18.25 179.304 16.4167 178.071 15.25C176.871 14.05 175.004 13.45 172.471 13.45H166.871V35.55ZM195.62 42C195.253 42 194.953 41.8833 194.72 41.65C194.487 41.4167 194.37 41.1167 194.37 40.75V8.25C194.37 7.88333 194.487 7.58333 194.72 7.35C194.953 7.11666 195.253 7 195.62 7H218.27C218.637 7 218.937 7.11666 219.17 7.35C219.403 7.58333 219.52 7.88333 219.52 8.25V12.25C219.52 12.5833 219.403 12.8667 219.17 13.1C218.937 13.3333 218.637 13.45 218.27 13.45H202.07V21.3H217.17C217.537 21.3 217.837 21.4167 218.07 21.65C218.303 21.8833 218.42 22.1833 218.42 22.55V26.25C218.42 26.5833 218.303 26.8667 218.07 27.1C217.837 27.3333 217.537 27.45 217.17 27.45H202.07V35.55H218.67C219.037 35.55 219.337 35.6667 219.57 35.9C219.803 36.1333 219.92 36.4333 219.92 36.8V40.75C219.92 41.1167 219.803 41.4167 219.57 41.65C219.337 41.8833 219.037 42 218.67 42H195.62ZM227.114 42C226.747 42 226.447 41.8833 226.214 41.65C225.981 41.4167 225.864 41.1167 225.864 40.75V8.25C225.864 7.88333 225.981 7.58333 226.214 7.35C226.447 7.11666 226.747 7 227.114 7H240.364C244.531 7 247.814 7.96666 250.214 9.9C252.614 11.8 253.814 14.55 253.814 18.15C253.814 20.5833 253.231 22.6167 252.064 24.25C250.897 25.8833 249.331 27.1 247.364 27.9L254.414 40.4C254.514 40.6 254.564 40.7833 254.564 40.95C254.564 41.2167 254.464 41.4667 254.264 41.7C254.064 41.9 253.814 42 253.514 42H247.964C247.364 42 246.914 41.85 246.614 41.55C246.314 41.2167 246.097 40.9167 245.964 40.65L239.864 29.2H233.814V40.75C233.814 41.1167 233.697 41.4167 233.464 41.65C233.231 41.8833 232.931 42 232.564 42H227.114ZM233.814 22.85H240.214C242.047 22.85 243.397 22.4333 244.264 21.6C245.164 20.7667 245.614 19.6 245.614 18.1C245.614 16.6 245.181 15.4167 244.314 14.55C243.447 13.6833 242.081 13.25 240.214 13.25H233.814V22.85ZM272.231 42C271.865 42 271.565 41.8833 271.331 41.65C271.098 41.4167 270.981 41.1167 270.981 40.75V8.25C270.981 7.88333 271.098 7.58333 271.331 7.35C271.565 7.11666 271.865 7 272.231 7H285.481C289.648 7 292.931 7.96666 295.331 9.9C297.731 11.8 298.931 14.55 298.931 18.15C298.931 20.5833 298.348 22.6167 297.181 24.25C296.015 25.8833 294.448 27.1 292.481 27.9L299.531 40.4C299.631 40.6 299.681 40.7833 299.681 40.95C299.681 41.2167 299.581 41.4667 299.381 41.7C299.181 41.9 298.931 42 298.631 42H293.081C292.481 42 292.031 41.85 291.731 41.55C291.431 41.2167 291.215 40.9167 291.081 40.65L284.981 29.2H278.931V40.75C278.931 41.1167 278.815 41.4167 278.581 41.65C278.348 41.8833 278.048 42 277.681 42H272.231ZM278.931 22.85H285.331C287.165 22.85 288.515 22.4333 289.381 21.6C290.281 20.7667 290.731 19.6 290.731 18.1C290.731 16.6 290.298 15.4167 289.431 14.55C288.565 13.6833 287.198 13.25 285.331 13.25H278.931V22.85ZM318.817 42.5C315.783 42.5 313.167 42 310.967 41C308.767 40 307.05 38.5 305.817 36.5C304.583 34.4667 303.917 31.9167 303.817 28.85C303.783 27.4167 303.767 26 303.767 24.6C303.767 23.1667 303.783 21.7167 303.817 20.25C303.917 17.25 304.583 14.7333 305.817 12.7C307.083 10.6333 308.817 9.08333 311.017 8.05C313.25 7.01667 315.85 6.5 318.817 6.5C321.75 6.5 324.317 7.01667 326.517 8.05C328.75 9.08333 330.5 10.6333 331.767 12.7C333.033 14.7333 333.7 17.25 333.767 20.25C333.833 21.7167 333.867 23.1667 333.867 24.6C333.867 26 333.833 27.4167 333.767 28.85C333.667 31.9167 333 34.4667 331.767 36.5C330.533 38.5 328.817 40 326.617 41C324.417 42 321.817 42.5 318.817 42.5ZM318.817 36.05C320.75 36.05 322.333 35.4667 323.567 34.3C324.833 33.1 325.5 31.2 325.567 28.6C325.633 27.1333 325.667 25.7667 325.667 24.5C325.667 23.2 325.633 21.8333 325.567 20.4C325.533 18.6667 325.217 17.25 324.617 16.15C324.017 15.05 323.217 14.25 322.217 13.75C321.25 13.2167 320.117 12.95 318.817 12.95C317.517 12.95 316.367 13.2167 315.367 13.75C314.367 14.25 313.567 15.05 312.967 16.15C312.4 17.25 312.083 18.6667 312.017 20.4C311.983 21.8333 311.967 23.2 311.967 24.5C311.967 25.7667 311.983 27.1333 312.017 28.6C312.117 31.2 312.783 33.1 314.017 34.3C315.25 35.4667 316.85 36.05 318.817 36.05ZM353.973 42.5C350.94 42.5 348.323 42 346.123 41C343.923 40 342.206 38.5 340.973 36.5C339.74 34.4667 339.073 31.9167 338.973 28.85C338.94 27.4167 338.923 26 338.923 24.6C338.923 23.1667 338.94 21.7167 338.973 20.25C339.073 17.25 339.74 14.7333 340.973 12.7C342.24 10.6333 343.973 9.08333 346.173 8.05C348.406 7.01667 351.006 6.5 353.973 6.5C356.906 6.5 359.473 7.01667 361.673 8.05C363.906 9.08333 365.656 10.6333 366.923 12.7C368.19 14.7333 368.856 17.25 368.923 20.25C368.99 21.7167 369.023 23.1667 369.023 24.6C369.023 26 368.99 27.4167 368.923 28.85C368.823 31.9167 368.156 34.4667 366.923 36.5C365.69 38.5 363.973 40 361.773 41C359.573 42 356.973 42.5 353.973 42.5ZM353.973 36.05C355.906 36.05 357.49 35.4667 358.723 34.3C359.99 33.1 360.656 31.2 360.723 28.6C360.79 27.1333 360.823 25.7667 360.823 24.5C360.823 23.2 360.79 21.8333 360.723 20.4C360.69 18.6667 360.373 17.25 359.773 16.15C359.173 15.05 358.373 14.25 357.373 13.75C356.406 13.2167 355.273 12.95 353.973 12.95C352.673 12.95 351.523 13.2167 350.523 13.75C349.523 14.25 348.723 15.05 348.123 16.15C347.556 17.25 347.24 18.6667 347.173 20.4C347.14 21.8333 347.123 23.2 347.123 24.5C347.123 25.7667 347.14 27.1333 347.173 28.6C347.273 31.2 347.94 33.1 349.173 34.3C350.406 35.4667 352.006 36.05 353.973 36.05ZM376.479 42C376.146 42 375.846 41.8833 375.579 41.65C375.346 41.4167 375.229 41.1167 375.229 40.75V8.25C375.229 7.88333 375.346 7.58333 375.579 7.35C375.846 7.11666 376.146 7 376.479 7H381.129C381.629 7 381.996 7.13333 382.229 7.4C382.496 7.66667 382.679 7.86667 382.779 8L391.979 24.95L401.279 8C401.346 7.86667 401.496 7.66667 401.729 7.4C401.996 7.13333 402.379 7 402.879 7H407.529C407.896 7 408.196 7.11666 408.429 7.35C408.663 7.58333 408.779 7.88333 408.779 8.25V40.75C408.779 41.1167 408.663 41.4167 408.429 41.65C408.196 41.8833 407.896 42 407.529 42H402.429C402.096 42 401.813 41.8833 401.579 41.65C401.346 41.4167 401.229 41.1167 401.229 40.75V20.55L394.879 32.45C394.713 32.75 394.496 33.0167 394.229 33.25C393.963 33.4833 393.613 33.6 393.179 33.6H390.829C390.396 33.6 390.046 33.4833 389.779 33.25C389.513 33.0167 389.296 32.75 389.129 32.45L382.779 20.55V40.75C382.779 41.1167 382.663 41.4167 382.429 41.65C382.196 41.8833 381.913 42 381.579 42H376.479Z" fill="white"/>
<path fill-rule="evenodd" clip-rule="evenodd" d="M12.4891 7.15231L1.00801 13.7372C0.386469 14.0936 0.00311161 14.7554 0.00304937 15.4719L0.0016 32.1567L0.000179356 47.9998C8.03028e-05 49.1045 0.89554 50 2.00018 50H25H47.9999C49.1045 50 50 49.1045 49.9999 47.9999L49.9991 32.1567L49.9983 15.4711C49.9983 14.755 49.6154 14.0936 48.9944 13.7369L37.5454 7.16117C30.6963 3.2274 25.0661 0.00490706 25.0338 5.47768e-06C25.0015 -0.00484609 19.3563 3.21369 12.4891 7.15231ZM35.5342 10.6475L45.4981 16.3713C45.8086 16.5497 46 16.8804 46 17.2384V31.3292V44.9987C46 45.551 45.5523 45.9987 45 45.9987H25H5C4.44772 45.9987 4 45.551 4 44.9987V31.3283V17.2372C4 16.8789 4.19176 16.5479 4.50265 16.3697L14.4856 10.6466C20.2527 7.34043 24.9931 4.63535 25.0198 4.63535C25.0466 4.63535 29.778 7.34083 35.5342 10.6475ZM15.825 15.5091L9.175 19.3303L9.1624 30.7639L9.1498 42.1975H11.1499H13.15V37.3459V32.4943L15.1375 32.4966L17.125 32.4989L17.8125 33.0489L18.5 33.599V37.8982V42.1975H20.5003H22.5004L22.4878 36.9102L22.475 31.6228L20.5205 30.0705L18.5661 28.5181L20.533 28.505L22.5 28.4919V20.0898C22.5 15.4686 22.4944 11.6877 22.4875 11.6878C22.4807 11.6878 19.4825 13.4074 15.825 15.5091ZM27.55 26.9416V42.1975H29.55H31.55V37.3459V32.4943L33.5375 32.4951L35.525 32.4958L36.2102 33.0328L36.8955 33.5697L36.9102 37.8961L36.925 42.2225H38.925H40.925L40.9378 36.9391L40.9505 31.6557L38.9573 30.0869L36.9007 28.4931L37.9483 28.5115L38.9324 28.505L40.9005 28.4919L40.8878 23.9094L40.875 19.3268L34.4 15.6041C30.8388 13.5565 27.8406 11.8373 27.7375 11.7835L27.55 11.6856V26.9416ZM18.5 23.5415V28.443H15.825H13.15L13.152 25.0544L13.154 21.6659L15.7895 20.1541C17.2391 19.3227 18.4418 18.6418 18.4625 18.6411C18.4831 18.6404 18.5 20.8456 18.5 23.5415ZM34.25 20.1553L36.875 21.6659L36.8878 25.0795L36.9007 28.4931H34.2254H31.55V23.5665C31.55 20.8568 31.5669 18.641 31.5875 18.6423C31.6082 18.6437 32.8063 19.3245 34.25 20.1553Z" fill="#81AB24"/>
</svg>
