<svg width="323" height="323" viewBox="0 0 323 323" fill="none" xmlns="http://www.w3.org/2000/svg">
<path d="M79.3228 95.8005C80.9041 87.4422 87.4419 80.9044 95.8002 79.3231L97.1212 79.0733C139.037 71.143 182.08 71.2521 223.956 79.3947L224.966 79.5912C232.309 81.0189 238.094 86.6845 239.675 93.9955L239.971 95.3655C249.259 138.324 249.132 182.786 239.597 225.691C238.055 232.633 232.633 238.055 225.691 239.597C182.786 249.132 138.324 249.259 95.3652 239.971L93.9952 239.675C86.6842 238.094 81.0186 232.309 79.5909 224.966L79.3944 223.956C71.2518 182.08 71.1427 139.037 79.073 97.1205L79.3228 95.8005Z" fill="url(#paint0_linear_761_574)"/>
<path d="M79.3228 95.8005C80.9041 87.4422 87.4419 80.9044 95.8002 79.3231L97.1212 79.0733C139.037 71.143 182.08 71.2521 223.956 79.3947L224.966 79.5912C232.309 81.0189 238.094 86.6845 239.675 93.9955L239.971 95.3655C249.259 138.324 249.132 182.786 239.597 225.691C238.055 232.633 232.633 238.055 225.691 239.597C182.786 249.132 138.324 249.259 95.3652 239.971L93.9952 239.675C86.6842 238.094 81.0186 232.309 79.5909 224.966L79.3944 223.956C71.2518 182.08 71.1427 139.037 79.073 97.1205L79.3228 95.8005Z" fill="url(#paint1_radial_761_574)" fill-opacity="0.06"/>
<path d="M95.7223 78.9094C87.1937 80.5229 80.5229 87.1937 78.9094 95.7223L78.6596 97.0423C70.7195 139.012 70.8287 182.108 78.9815 224.036L79.1779 225.047C80.6377 232.554 86.4309 238.47 93.9063 240.086L95.2763 240.382C138.295 249.683 182.818 249.556 225.783 240.008C232.884 238.43 238.43 232.884 240.008 225.783C249.556 182.818 249.683 138.295 240.382 95.2763L240.086 93.9063C238.47 86.4309 232.554 80.6377 225.047 79.1779L224.036 78.9815C182.108 70.8287 139.012 70.7195 97.0423 78.6596L95.7223 78.9094Z" stroke="url(#paint2_linear_761_574)" stroke-opacity="0.2" stroke-width="0.841584"/>
<path d="M79.2636 58.7361C68.8831 60.7671 60.7671 68.8831 58.7361 79.2636L58.475 80.5984C48.1438 133.402 48.2574 187.718 58.8094 240.478L59.0038 241.45C60.8814 250.838 68.1429 258.221 77.4982 260.255L78.871 260.554C132.695 272.255 188.449 272.119 242.219 260.171C251.177 258.18 258.179 251.183 260.169 242.224C272.123 188.431 272.252 132.683 260.546 78.8356L260.247 77.4614C258.218 68.1284 250.852 60.8843 241.487 59.0112L240.478 58.8094C187.718 48.2574 133.402 48.1438 80.5983 58.475L79.2636 58.7361Z" stroke="url(#paint3_linear_761_574)" stroke-opacity="0.6" stroke-width="1.7"/>
<path d="M58.8693 36.9927C47.9061 39.342 39.3419 47.9061 36.9927 58.8693L35.8467 64.2172C22.2366 127.731 22.2366 193.407 35.8467 256.921L37.1194 262.86C39.397 273.489 47.6114 281.844 58.1999 284.302C125.551 299.937 195.821 299.883 263.171 284.248C273.618 281.823 281.823 273.618 284.248 263.171C299.883 195.821 299.937 125.551 284.302 58.1999C281.844 47.6114 273.489 39.397 262.86 37.1194L256.921 35.8467C193.407 22.2366 127.731 22.2366 64.2172 35.8467L58.8693 36.9927Z" stroke="url(#paint4_linear_761_574)" stroke-opacity="0.4" stroke-width="1.7"/>
<path d="M39.7892 17.6789C28.6972 20.0318 20.0318 28.6972 17.6789 39.7892L12.0136 66.497C-1.4383 129.913 -1.33601 195.456 12.3138 258.831L17.6971 283.825C20.0461 294.731 28.5049 303.286 39.3837 305.758L59.9526 310.433C127.573 325.801 197.792 325.685 265.361 310.092L284.234 305.737C294.923 303.27 303.27 294.923 305.737 284.234L310.092 265.361C325.685 197.792 325.801 127.573 310.433 59.9526L305.758 39.3837C303.286 28.5049 294.731 20.0461 283.825 17.6971L258.831 12.3138C195.456 -1.33602 129.913 -1.4383 66.497 12.0136L39.7892 17.6789Z" stroke="url(#paint5_linear_761_574)" stroke-opacity="0.2" stroke-width="2.125"/>
<g filter="url(#filter0_d_761_574)">
<path fill-rule="evenodd" clip-rule="evenodd" d="M161.362 119.8C160.599 119.972 160.166 120.152 159.148 120.724C154.88 123.121 127.341 139.021 126.954 139.312C126.022 140.01 125.188 141.283 124.833 142.546C124.7 143.02 124.694 143.987 124.694 166.398V189.757L124.872 190.326C125.247 191.53 125.969 192.627 126.874 193.367C127.428 193.82 128.506 194.374 129.201 194.561C129.666 194.687 131.488 194.694 162.562 194.694H195.431L195.999 194.516C197.702 193.983 198.992 192.895 199.752 191.352C200.419 189.996 200.352 192.693 200.374 166.56C200.393 143.418 200.393 143.361 200.238 142.707C199.936 141.429 199.139 140.138 198.179 139.372C197.768 139.045 166.444 120.931 165.19 120.297C164.134 119.762 162.483 119.547 161.362 119.8ZM178.481 134.965L194.333 144.096V166.376V188.655H162.524H130.715V166.374V144.093L146.598 134.964C155.333 129.943 162.514 125.834 162.554 125.834C162.595 125.834 169.762 129.943 178.481 134.965ZM148.627 142.349L138.554 148.152L138.535 165.517L138.516 182.882H141.545H144.575V175.514V168.145H147.568H150.562L151.617 168.81L152.672 169.475L152.675 176.178L152.679 182.882H155.708H158.737V174.503V166.124L155.5 164.058L152.262 161.993L148.418 161.993L144.574 161.992L144.593 156.847L144.613 151.701L145.711 151.065C146.315 150.716 146.945 150.352 147.112 150.257C147.887 149.813 150.545 148.284 150.747 148.166C151.562 147.688 152.604 147.104 152.638 147.104C152.66 147.104 152.679 150.197 152.679 153.978V160.853H155.708H158.737V148.699C158.737 142.014 158.729 136.545 158.719 136.545C158.708 136.545 154.167 139.157 148.627 142.349ZM166.387 159.712V182.882H169.416H172.446V175.514V168.145H175.431H178.417L179.445 168.763L180.474 169.381V176.17V182.958H183.503H186.533L186.514 174.432L186.494 165.906L183.351 163.991L180.208 162.076L176.327 162.072L172.446 162.068V154.586C172.446 150.471 172.471 147.105 172.502 147.108C172.534 147.11 174.348 148.144 176.535 149.405L180.511 151.699L180.531 156.238L180.55 160.777H183.58H186.609L186.59 154.462L186.57 148.147L176.762 142.493C171.368 139.383 166.827 136.772 166.671 136.69L166.387 136.542V159.712Z" fill="#81AB24"/>
</g>
<defs>
<filter id="filter0_d_761_574" x="108.594" y="103.594" width="107.888" height="107.2" filterUnits="userSpaceOnUse" color-interpolation-filters="sRGB">
<feFlood flood-opacity="0" result="BackgroundImageFix"/>
<feColorMatrix in="SourceAlpha" type="matrix" values="0 0 0 0 0 0 0 0 0 0 0 0 0 0 0 0 0 0 127 0" result="hardAlpha"/>
<feOffset/>
<feGaussianBlur stdDeviation="8.05"/>
<feComposite in2="hardAlpha" operator="out"/>
<feColorMatrix type="matrix" values="0 0 0 0 1 0 0 0 0 1 0 0 0 0 1 0 0 0 0.25 0"/>
<feBlend mode="normal" in2="BackgroundImageFix" result="effect1_dropShadow_761_574"/>
<feBlend mode="normal" in="SourceGraphic" in2="effect1_dropShadow_761_574" result="shape"/>
</filter>
<linearGradient id="paint0_linear_761_574" x1="160.569" y1="67.0695" x2="80.6942" y2="253.694" gradientUnits="userSpaceOnUse">
<stop stop-color="#0F172A"/>
<stop offset="1" stop-color="#0F172A" stop-opacity="0"/>
</linearGradient>
<radialGradient id="paint1_radial_761_574" cx="0" cy="0" r="1" gradientUnits="userSpaceOnUse" gradientTransform="translate(160.569 160.569) rotate(-90) scale(100.596 107.502)">
<stop stop-color="white"/>
<stop offset="1" stop-opacity="0"/>
</radialGradient>
<linearGradient id="paint2_linear_761_574" x1="239.877" y1="89.1921" x2="186.866" y2="221.928" gradientUnits="userSpaceOnUse">
<stop stop-color="#81AB24"/>
<stop offset="1" stop-opacity="0"/>
</linearGradient>
<linearGradient id="paint3_linear_761_574" x1="259.704" y1="71.348" x2="193.44" y2="237.268" gradientUnits="userSpaceOnUse">
<stop stop-color="#81AB24"/>
<stop offset="1" stop-opacity="0"/>
</linearGradient>
<linearGradient id="paint4_linear_761_574" x1="285.099" y1="50.5103" x2="202.571" y2="257.157" gradientUnits="userSpaceOnUse">
<stop stop-color="#81AB24"/>
<stop offset="1" stop-opacity="0"/>
</linearGradient>
<linearGradient id="paint5_linear_761_574" x1="306.89" y1="32.9175" x2="210.507" y2="274.256" gradientUnits="userSpaceOnUse">
<stop stop-color="#81AB24"/>
<stop offset="1" stop-opacity="0"/>
</linearGradient>
</defs>
</svg>
