<svg width="400" height="225" viewBox="0 0 400 225" fill="none" xmlns="http://www.w3.org/2000/svg">
<g opacity="0.3">
<rect width="400" height="225" fill="white"/>
<path d="M117 111.2H113.2L111.1 103.5C110.6 101.8 109.5 101 108 101H102.9V111.3H99.2V86.4C101.2 86.2 104.1 86.1 107.9 86.1C110.9 86.1 113 86.6 114.3 87.6C115.5 88.6 116.2 90.5 116.2 93.3C116.2 95.3 115.8 96.8 115.1 97.8C114.4 98.8 113.2 99.4 111.6 99.6V99.8C113.2 100.3 114.3 101.5 114.7 103.4L117 111.2ZM102.8 97.9H107.8C109.6 97.9 110.8 97.6 111.5 96.9C112.2 96.3 112.5 95.1 112.5 93.4C112.5 91.7 112.2 90.6 111.5 90C110.8 89.4 109.6 89.1 107.8 89.1C105.4 89.1 103.7 89.1 102.8 89.1V97.9V97.9Z" fill="black"/>
<path d="M131.8 104.1H123.9C124.1 105.9 124.5 107.1 125.3 107.8C126.1 108.5 127.4 108.7 129.1 108.7C130.7 108.7 132.7 108.6 135.3 108.3L135.6 110.6C134 111.3 131.7 111.6 128.7 111.6C125.6 111.6 123.4 110.9 122.2 109.5C120.9 108.2 120.2 105.8 120.2 102.4C120.2 99 120.8 96.6 122.1 95.2C123.4 93.8 125.4 93.1 128.3 93.1C131 93.1 132.9 93.6 134.2 94.6C135.4 95.6 136 97.1 136 99C136.1 102.4 134.6 104.1 131.8 104.1ZM123.8 101.4H130.8C132 101.4 132.5 100.6 132.5 99.1C132.5 98 132.2 97.3 131.6 96.8C131 96.3 130 96.1 128.5 96.1C126.8 96.1 125.6 96.5 124.9 97.2C124.3 98 123.9 99.4 123.8 101.4Z" fill="black"/>
<path d="M143.4 93.7L143.6 96.4C146.4 94.3 149 93.2 151.4 93.2C153 93.2 154.1 93.6 154.9 94.4C155.7 95.2 156.1 96.4 156.1 98V111.2H152.6V99.1C152.6 98 152.4 97.2 152.1 96.8C151.8 96.4 151.2 96.2 150.4 96.2C149.5 96.2 148.6 96.4 147.7 96.8C146.8 97.2 145.5 97.9 144 98.8V111.3H140.5V93.7H143.4Z" fill="black"/>
<path d="M174 111.2L173.7 108.8C171.4 110.7 169.1 111.6 166.8 111.6C164.6 111.6 163.1 110.8 162.1 109.3C161.1 107.8 160.6 105.4 160.6 102.3C160.6 98.9 161.1 96.6 162.2 95.2C163.3 93.8 165 93.1 167.3 93.1C169.5 93.1 171.5 93.6 173.3 94.7C173.2 93.7 173.2 92.5 173.2 91.2V86H176.7V111.2H174ZM173.2 106.4V97C171 96.4 169.3 96.1 168.2 96.1C166.7 96.1 165.7 96.5 165.1 97.3C164.5 98.1 164.2 99.9 164.2 102.3C164.2 104.7 164.5 106.4 165 107.3C165.6 108.2 166.5 108.6 167.9 108.6C168.8 108.6 169.6 108.4 170.3 108.1C171 107.8 172 107.3 173.2 106.4Z" fill="black"/>
<path d="M192.9 104.1H185C185.2 105.9 185.6 107.1 186.4 107.8C187.2 108.5 188.5 108.7 190.2 108.7C191.8 108.7 193.8 108.6 196.4 108.3L196.7 110.6C195.1 111.3 192.8 111.6 189.8 111.6C186.7 111.6 184.5 110.9 183.3 109.5C182 108.1 181.4 105.7 181.4 102.3C181.4 98.9 182 96.5 183.3 95.1C184.6 93.7 186.6 93 189.5 93C192.2 93 194.1 93.5 195.4 94.5C196.6 95.5 197.2 97 197.2 98.9C197.1 102.4 195.7 104.1 192.9 104.1ZM184.9 101.4H191.9C193.1 101.4 193.6 100.6 193.6 99.1C193.6 98 193.3 97.3 192.7 96.8C192.1 96.3 191.1 96.1 189.6 96.1C187.9 96.1 186.7 96.5 186 97.2C185.3 98 185 99.4 184.9 101.4Z" fill="black"/>
<path d="M212.8 93.2L212.4 96.5H211.3C209.9 96.5 207.8 97.2 205 98.5V111.2H201.5V93.7H204.2L204.6 96.4C207.2 94.3 209.7 93.3 212 93.3H212.8V93.2Z" fill="black"/>
<path d="M234.6 93.2L234.2 96.5H233.1C231.7 96.5 229.6 97.2 226.8 98.5V111.2H223.3V93.7H226L226.4 96.4C229 94.3 231.5 93.3 233.8 93.3H234.6V93.2Z" fill="black"/>
<path d="M238.6 95.3C239.9 93.9 242 93.2 245.1 93.2C248.2 93.2 250.3 93.9 251.6 95.3C252.9 96.7 253.5 99.1 253.5 102.5C253.5 105.9 252.9 108.2 251.6 109.6C250.3 111 248.2 111.7 245.1 111.7C242 111.7 239.9 111 238.6 109.6C237.3 108.2 236.7 105.8 236.7 102.5C236.7 99.2 237.3 96.7 238.6 95.3ZM248.8 97.5C248.1 96.6 246.9 96.2 245.1 96.2C243.3 96.2 242 96.6 241.4 97.5C240.7 98.4 240.4 100.1 240.4 102.5C240.4 104.9 240.7 106.6 241.4 107.5C242.1 108.4 243.3 108.8 245.1 108.8C246.9 108.8 248.2 108.4 248.8 107.5C249.5 106.6 249.8 105 249.8 102.5C249.8 100 249.5 98.4 248.8 97.5Z" fill="black"/>
<path d="M259.1 95.3C260.4 93.9 262.5 93.2 265.6 93.2C268.7 93.2 270.8 93.9 272.1 95.3C273.4 96.7 274 99.1 274 102.5C274 105.9 273.4 108.2 272.1 109.6C270.8 111 268.7 111.7 265.6 111.7C262.5 111.7 260.4 111 259.1 109.6C257.8 108.2 257.2 105.8 257.2 102.5C257.2 99.2 257.9 96.7 259.1 95.3ZM269.4 97.5C268.7 96.6 267.5 96.2 265.7 96.2C263.9 96.2 262.6 96.6 262 97.5C261.3 98.4 261 100.1 261 102.5C261 104.9 261.3 106.6 262 107.5C262.7 108.4 263.9 108.8 265.7 108.8C267.5 108.8 268.8 108.4 269.4 107.5C270.1 106.6 270.4 105 270.4 102.5C270.4 100 270 98.4 269.4 97.5Z" fill="black"/>
<path d="M281.5 93.7L281.7 96.4C284.1 94.3 286.5 93.2 288.8 93.2C291.2 93.2 292.7 94.2 293.3 96.3C295.6 94.3 297.9 93.2 300.2 93.2C301.7 93.2 302.9 93.6 303.7 94.4C304.5 95.2 304.9 96.4 304.9 98V111.2H301.5V99.1C301.5 98.1 301.3 97.3 300.9 96.9C300.5 96.4 299.9 96.2 299 96.2C298.2 96.2 297.5 96.4 296.7 96.7C296 97.1 294.9 97.7 293.5 98.8V111.3H290.2V99.1C290.2 98 290 97.3 289.6 96.8C289.2 96.4 288.5 96.1 287.7 96.1C286.9 96.1 286.2 96.3 285.4 96.6C284.7 97 283.6 97.6 282.2 98.6V111.1H278.7V93.7H281.5Z" fill="black"/>
<path d="M104.5 125.6L104.6 126.2C104 126.4 103.2 126.5 102.2 126.5C101 126.5 100.2 126.2 99.7 125.5C99.2 124.8 99 123.7 99 122.1C99 120.5 99.2 119.5 99.7 118.8C100.2 118.2 101 117.8 102.2 117.8C103.1 117.8 103.8 117.9 104.4 118L104.3 118.6C103.7 118.5 103 118.5 102.2 118.5C101.3 118.5 100.7 118.8 100.4 119.3C100.1 119.8 99.9 120.8 99.9 122.1C99.9 123.4 100.1 124.4 100.4 124.9C100.7 125.4 101.4 125.7 102.2 125.7C103.1 125.7 103.8 125.7 104.5 125.6Z" fill="black"/>
<path d="M106.3 121C106.7 120.5 107.4 120.3 108.4 120.3C109.4 120.3 110.1 120.5 110.5 121C110.9 121.5 111.1 122.3 111.1 123.4C111.1 124.5 110.9 125.3 110.5 125.8C110.1 126.3 109.4 126.5 108.4 126.5C107.4 126.5 106.7 126.3 106.3 125.8C105.9 125.3 105.7 124.6 105.7 123.4C105.7 122.3 105.9 121.5 106.3 121ZM109.9 121.5C109.6 121.2 109.1 121 108.4 121C107.7 121 107.2 121.2 106.9 121.5C106.6 121.8 106.5 122.5 106.5 123.4C106.5 124.3 106.6 124.9 106.9 125.3C107.2 125.6 107.7 125.8 108.4 125.8C109.1 125.8 109.6 125.6 109.9 125.3C110.2 125 110.3 124.3 110.3 123.4C110.3 122.5 110.1 121.8 109.9 121.5Z" fill="black"/>
<path d="M112.5 121.1L112.4 120.5C112.9 120.4 113.5 120.3 114.1 120.3C115.1 120.3 115.7 120.4 116.1 120.6C116.5 120.8 116.7 121.2 116.7 121.8C116.7 122.2 116.6 122.6 116.4 122.8C116.2 123 115.9 123.1 115.4 123.2C115.9 123.2 116.3 123.4 116.5 123.6C116.7 123.8 116.8 124.2 116.8 124.7C116.8 125.3 116.6 125.7 116.3 125.9C115.9 126.1 115.3 126.2 114.4 126.2C113.6 126.2 112.9 126.1 112.2 126L112.3 125.4C113.1 125.5 113.8 125.5 114.4 125.5C115 125.5 115.5 125.4 115.7 125.3C115.9 125.2 116.1 124.9 116.1 124.5C116.1 124.1 116 123.8 115.7 123.6C115.5 123.4 115 123.4 114.4 123.4H113.1V122.8H114.4C115 122.8 115.4 122.7 115.6 122.6C115.8 122.5 115.9 122.2 115.9 121.8C115.9 121.4 115.8 121.1 115.5 121C115.2 120.9 114.8 120.8 114.1 120.8C113.4 121 112.9 121.1 112.5 121.1Z" fill="black"/>
<path d="M123.9 125.7V128.1H123.4L123.3 126.4H118.5L118.4 128.1H117.9V125.7H118.5C119 124.7 119.4 123.4 119.5 121.8C119.5 121 120 120.6 120.9 120.6H123.2V125.8H123.9V125.7ZM122.4 121.1H120.9C120.4 121.1 120.2 121.4 120.1 121.9C120 123.5 119.7 124.8 119.1 125.7H122.3V121.1H122.4Z" fill="black"/>
<path d="M125.4 121.1L125.3 120.5C126.5 120.3 127.4 120.2 128.1 120.2C128.7 120.2 129.2 120.3 129.5 120.6C129.8 120.9 130 121.3 130 122V126.2H129.4L129.3 125.2C129 125.5 128.6 125.7 128.2 126C127.7 126.2 127.3 126.3 126.8 126.3C126.3 126.3 125.9 126.2 125.6 125.9C125.3 125.6 125.2 125.2 125.2 124.7V124C125.2 123.6 125.3 123.2 125.6 123C125.9 122.8 126.2 122.6 126.7 122.6H129.2V122C129.2 121.6 129.1 121.3 128.9 121.1C128.7 120.9 128.4 120.8 127.9 120.8C127.3 121 126.5 121 125.4 121.1ZM125.9 124.2V124.7C125.9 125.3 126.2 125.7 126.9 125.7C127.3 125.7 127.6 125.6 128.1 125.4C128.6 125.2 128.9 125 129.3 124.7V123.3H126.8C126.2 123.4 125.9 123.7 125.9 124.2Z" fill="black"/>
<path d="M136.9 120.5V126.3H136.1V123.5H132.7V126.3H132V120.5H132.7V122.9H136.1V120.5H136.9Z" fill="black"/>
<path d="M143.9 126.3H143.2V122.1C143.2 122 143.2 121.7 143.2 121.4C143.1 121.6 143 121.8 142.8 122L139.5 126.3H138.9V120.5H139.6V124.7C139.6 125 139.6 125.3 139.6 125.4C139.8 125.1 139.9 124.9 140 124.8L143.3 120.5H143.9V126.3Z" fill="black"/>
<path d="M149.3 123.7H146.4C146.4 124.5 146.6 125 146.9 125.3C147.2 125.6 147.7 125.7 148.4 125.7C149 125.7 149.7 125.7 150.4 125.6L150.5 126.1C150 126.3 149.3 126.4 148.3 126.4C147.3 126.4 146.6 126.2 146.2 125.7C145.8 125.2 145.6 124.4 145.6 123.3C145.6 122.2 145.8 121.4 146.2 120.9C146.6 120.4 147.3 120.2 148.2 120.2C149 120.2 149.6 120.3 150 120.7C150.4 121 150.6 121.5 150.6 122.1C150.7 123.2 150.2 123.7 149.3 123.7ZM146.4 123.1H149.2C149.7 123.1 150 122.8 149.9 122.1C149.9 121.7 149.8 121.4 149.5 121.2C149.2 121 148.8 120.9 148.3 120.9C147.6 120.9 147.1 121.1 146.9 121.4C146.6 121.8 146.4 122.3 146.4 123.1Z" fill="black"/>
<path d="M159.3 125.6L159.4 126.1C158.8 126.3 158.2 126.4 157.5 126.4C156.5 126.4 155.8 126.2 155.4 125.7C155 125.2 154.8 124.5 154.8 123.3C154.8 122.1 155 121.4 155.4 120.9C155.8 120.4 156.5 120.2 157.5 120.2C158.2 120.2 158.8 120.3 159.3 120.5L159.2 121.1C158.8 121 158.3 121 157.7 121C156.9 121 156.4 121.2 156.1 121.5C155.8 121.8 155.6 122.5 155.6 123.4C155.6 124.3 155.7 124.9 156.1 125.3C156.4 125.6 156.9 125.8 157.7 125.8C158.3 125.8 158.8 125.7 159.3 125.6Z" fill="black"/>
<path d="M160.9 121.1L160.8 120.5C162 120.3 162.9 120.2 163.6 120.2C164.2 120.2 164.7 120.3 165 120.6C165.3 120.9 165.5 121.3 165.5 122V126.2H164.9L164.8 125.2C164.5 125.5 164.1 125.7 163.7 126C163.2 126.2 162.8 126.3 162.3 126.3C161.8 126.3 161.4 126.2 161.1 125.9C160.8 125.6 160.7 125.2 160.7 124.7V124C160.7 123.6 160.8 123.2 161.1 123C161.4 122.8 161.7 122.6 162.2 122.6H164.8V122C164.8 121.6 164.7 121.3 164.5 121.1C164.3 120.9 164 120.8 163.5 120.8C162.8 121 161.9 121 160.9 121.1ZM161.3 124.2V124.7C161.3 125.3 161.6 125.7 162.3 125.7C162.7 125.7 163 125.6 163.5 125.4C164 125.2 164.3 125 164.7 124.7V123.3H162.2C161.6 123.4 161.3 123.7 161.3 124.2Z" fill="black"/>
<path d="M172.4 126.3H171.7V122.1C171.7 122 171.7 121.7 171.7 121.4C171.6 121.6 171.5 121.8 171.3 122L168 126.3H167.4V120.5H168.1V124.7C168.1 125 168.1 125.3 168.1 125.4C168.3 125.1 168.4 124.9 168.5 124.8L171.8 120.5H172.4V126.3ZM171 117.9H171.6C171.6 118.4 171.5 118.7 171.2 119C170.9 119.3 170.5 119.4 169.9 119.4C169.4 119.4 168.9 119.3 168.6 119C168.3 118.7 168.1 118.3 168.1 117.9H168.7C168.7 118.3 168.8 118.5 169 118.7C169.2 118.9 169.5 119 169.8 119C170.2 119 170.4 118.9 170.6 118.7C170.9 118.5 171 118.2 171 117.9Z" fill="black"/>
<path d="M178.9 121.1H176.7V126.3H175.9V121.1H173.7V120.5H178.8V121.1H178.9Z" fill="black"/>
<path d="M180.5 121C180.9 120.5 181.6 120.3 182.6 120.3C183.6 120.3 184.3 120.5 184.7 121C185.1 121.5 185.3 122.3 185.3 123.4C185.3 124.5 185.1 125.3 184.7 125.8C184.3 126.3 183.6 126.5 182.6 126.5C181.6 126.5 180.9 126.3 180.5 125.8C180.1 125.3 179.9 124.6 179.9 123.4C179.9 122.3 180.1 121.5 180.5 121ZM184 121.5C183.7 121.2 183.2 121 182.5 121C181.8 121 181.3 121.2 181 121.5C180.7 121.8 180.6 122.5 180.6 123.4C180.6 124.3 180.7 124.9 181 125.3C181.3 125.6 181.8 125.8 182.5 125.8C183.2 125.8 183.7 125.6 184 125.3C184.3 125 184.4 124.3 184.4 123.4C184.4 122.5 184.3 121.8 184 121.5Z" fill="black"/>
<path d="M190.4 123.3C190.9 123.4 191.3 123.5 191.5 123.8C191.7 124.1 191.8 124.4 191.8 124.9C191.8 125.5 191.6 125.9 191.3 126.1C191 126.3 190.4 126.4 189.5 126.4C188.4 126.4 187.5 126.4 186.9 126.3V120.5C187.5 120.5 188.2 120.4 189.2 120.4C190.1 120.4 190.7 120.5 191.1 120.7C191.5 120.9 191.6 121.3 191.6 121.9C191.6 122.3 191.5 122.6 191.3 122.8C191.1 123 190.8 123.2 190.4 123.3ZM187.7 123H189.4C190 123 190.4 122.9 190.6 122.8C190.8 122.7 190.9 122.4 190.9 122C190.9 121.6 190.8 121.3 190.5 121.2C190.3 121.1 189.8 121 189.2 121H187.7V123ZM187.7 123.6V125.8C187.8 125.8 187.9 125.8 188.2 125.8C188.5 125.8 188.6 125.8 188.9 125.8C189.1 125.8 189.3 125.8 189.5 125.8C190.1 125.8 190.6 125.7 190.8 125.6C191 125.5 191.2 125.2 191.2 124.8C191.2 124.4 191.1 124.1 190.8 123.9C190.5 123.7 190.1 123.7 189.5 123.7H187.7V123.6Z" fill="black"/>
<path d="M201.3 126.3H200.6V122.1C200.6 122 200.6 121.7 200.6 121.4C200.5 121.6 200.4 121.8 200.2 122L196.9 126.3H196.3V120.5H197V124.7C197 125 197 125.3 197 125.4C197.2 125.1 197.3 124.9 197.4 124.8L200.7 120.5H201.3V126.3Z" fill="black"/>
<path d="M205.9 118.7L205.8 118.1C206.6 118 207.4 117.9 208.1 117.9C209 117.9 209.7 118 210.1 118.3C210.5 118.6 210.7 119.1 210.7 119.8C210.7 121 210.3 121.7 209.4 121.9C209.9 122 210.3 122.2 210.5 122.6C210.7 122.9 210.8 123.4 210.9 124C210.9 124.8 210.7 125.5 210.3 125.9C209.9 126.3 209.2 126.5 208.3 126.5C207.6 126.5 206.8 126.4 205.7 126.3L205.8 125.7C206.7 125.8 207.5 125.8 208.1 125.8C208.8 125.8 209.3 125.7 209.6 125.4C209.9 125.1 210.1 124.7 210.1 124C210.1 123.5 210 123.1 209.7 122.8C209.4 122.5 209 122.4 208.3 122.4H206.8V121.8H208.3C208.6 121.8 208.9 121.7 209.2 121.6C209.5 121.5 209.6 121.4 209.7 121.2C209.8 121 209.9 120.9 209.9 120.7C209.9 120.5 209.9 120.3 209.9 120.1C209.9 119.5 209.8 119.2 209.5 119C209.2 118.8 208.8 118.7 208 118.7C207.2 118.6 206.5 118.6 205.9 118.7Z" fill="black"/>
<path d="M216.9 126.3L216.8 125.4C216 126.1 215.2 126.4 214.5 126.4C213.8 126.4 213.2 126.2 212.9 125.7C212.6 125.2 212.4 124.4 212.4 123.4C212.4 122.3 212.6 121.5 212.9 121C213.2 120.5 213.8 120.3 214.6 120.3C215.3 120.3 216.1 120.5 216.8 120.9C216.8 120.6 216.8 120.3 216.8 119.8V117.9H217.6V126.3H216.9ZM216.7 124.8V121.4C215.9 121.1 215.2 121 214.7 121C214.1 121 213.7 121.2 213.5 121.5C213.3 121.8 213.2 122.5 213.2 123.4C213.2 124.3 213.3 124.9 213.5 125.3C213.7 125.6 214.1 125.8 214.7 125.8C215 125.8 215.3 125.7 215.6 125.6C215.9 125.4 216.3 125.2 216.7 124.8Z" fill="black"/>
<path d="M225.6 123.3C226.1 123.4 226.5 123.5 226.7 123.8C226.9 124.1 227 124.4 227 124.9C227 125.5 226.8 125.9 226.5 126.1C226.2 126.3 225.6 126.4 224.7 126.4C223.6 126.4 222.7 126.4 222.1 126.3V120.5C222.7 120.5 223.4 120.4 224.4 120.4C225.3 120.4 225.9 120.5 226.3 120.7C226.7 120.9 226.8 121.3 226.8 121.9C226.8 122.3 226.7 122.6 226.5 122.8C226.3 123 226.1 123.2 225.6 123.3ZM222.9 123H224.6C225.2 123 225.6 122.9 225.8 122.8C226 122.7 226.1 122.4 226.1 122C226.1 121.6 226 121.3 225.7 121.2C225.5 121.1 225 121 224.4 121H222.9V123V123ZM222.9 123.6V125.8C223 125.8 223.1 125.8 223.4 125.8C223.7 125.8 223.8 125.8 224.1 125.8C224.3 125.8 224.5 125.8 224.7 125.8C225.3 125.8 225.8 125.7 226 125.6C226.2 125.5 226.4 125.2 226.4 124.8C226.4 124.4 226.3 124.1 226 123.9C225.7 123.7 225.3 123.7 224.7 123.7H222.9V123.6Z" fill="black"/>
<path d="M233.8 126.3H233.1V122.1C233.1 122 233.1 121.7 233.1 121.4C233 121.6 232.9 121.8 232.7 122L229.4 126.3H228.8V120.5H229.5V124.7C229.5 125 229.5 125.3 229.5 125.4C229.7 125.1 229.8 124.9 229.9 124.8L233.2 120.5H233.8V126.3Z" fill="black"/>
<path d="M235.5 121.1L235.4 120.5C235.9 120.4 236.5 120.3 237.1 120.3C238.1 120.3 238.7 120.4 239.1 120.6C239.5 120.8 239.7 121.2 239.7 121.8C239.7 122.2 239.6 122.6 239.4 122.8C239.2 123 238.9 123.1 238.4 123.2C238.9 123.2 239.3 123.4 239.5 123.6C239.7 123.8 239.8 124.2 239.8 124.7C239.8 125.3 239.6 125.7 239.3 125.9C238.9 126.1 238.3 126.2 237.4 126.2C236.6 126.2 235.9 126.1 235.2 126L235.3 125.4C236.1 125.5 236.8 125.5 237.4 125.5C238 125.5 238.5 125.4 238.7 125.3C238.9 125.2 239.1 124.9 239.1 124.5C239.1 124.1 239 123.8 238.7 123.6C238.5 123.4 238 123.4 237.4 123.4H236.2V122.8H237.5C238.1 122.8 238.5 122.7 238.7 122.6C238.9 122.5 239 122.2 239 121.8C239 121.4 238.9 121.1 238.6 121C238.3 120.9 237.9 120.8 237.2 120.8C236.5 121 236 121.1 235.5 121.1Z" fill="black"/>
<path d="M246.6 120.5L244.2 126.7C243.9 127.5 243.5 128 243.1 128.4C242.6 128.8 242 128.9 241.1 128.8L241.2 128.3C241.8 128.3 242.3 128.2 242.6 128C242.9 127.8 243.2 127.3 243.4 126.7L243.5 126.4H243.3C243.1 126.4 243 126.3 243 126.2L240.8 120.6H241.6L243.3 125.1C243.4 125.4 243.5 125.6 243.5 125.8H243.7L244 125.1L245.7 120.6H246.6V120.5Z" fill="black"/>
<path d="M247.8 121.1L247.7 120.5C248.9 120.3 249.8 120.2 250.5 120.2C251.1 120.2 251.6 120.3 251.9 120.6C252.2 120.9 252.4 121.3 252.4 122V126.2H251.8L251.7 125.2C251.4 125.5 251 125.7 250.6 126C250.1 126.2 249.7 126.3 249.2 126.3C248.7 126.3 248.3 126.2 248 125.9C247.7 125.6 247.6 125.2 247.6 124.7V124C247.6 123.6 247.7 123.2 248 123C248.3 122.8 248.6 122.6 249.1 122.6H251.7V122C251.7 121.6 251.6 121.3 251.4 121.1C251.2 120.9 250.9 120.8 250.4 120.8C249.7 121 248.9 121 247.8 121.1ZM248.3 124.2V124.7C248.3 125.3 248.6 125.7 249.3 125.7C249.7 125.7 250 125.6 250.5 125.4C251 125.2 251.3 125 251.7 124.7V123.3H249.2C248.6 123.4 248.3 123.7 248.3 124.2Z" fill="black"/>
<path d="M259 120.5V126.3H258.2V121.1H256.7C256.4 121.1 256.3 121.2 256.1 121.3C255.9 121.4 255.9 121.6 255.9 121.9C255.9 122 255.9 122.1 255.9 122.3C255.9 122.5 255.9 122.7 255.8 122.8C255.7 122.9 255.8 123 255.7 123.2C255.7 123.4 255.7 123.5 255.6 123.6C255.6 123.7 255.6 123.8 255.5 124C255.5 124.2 255.4 124.3 255.4 124.4C255.4 124.5 255.3 124.6 255.3 124.8C255.3 125 255.2 125.1 255.2 125.2C254.9 126 254.4 126.4 253.6 126.4L253.5 125.8C253.8 125.7 254 125.6 254.2 125.5C254.4 125.4 254.5 125.2 254.6 125C254.6 124.9 254.7 124.8 254.7 124.6C254.7 124.5 254.8 124.3 254.8 124.1C254.8 123.9 254.9 123.8 254.9 123.6C254.9 123.5 255 123.3 255 123.1C255 122.9 255 122.7 255.1 122.6C255.1 122.5 255.1 122.3 255.1 122.1C255.1 121.9 255.1 121.8 255.1 121.7C255.2 121.3 255.3 120.9 255.5 120.7C255.7 120.5 256 120.4 256.5 120.4H259V120.5Z" fill="black"/>
<path d="M266 126.3H265.3V122.1C265.3 122 265.3 121.7 265.3 121.4C265.2 121.6 265.1 121.8 264.9 122L261.6 126.3H261V120.5H261.7V124.7C261.7 125 261.7 125.3 261.7 125.4C261.9 125.1 262 124.9 262.1 124.8L265.4 120.5H266V126.3Z" fill="black"/>
<path d="M267.7 121.1L267.6 120.5C268.1 120.4 268.7 120.3 269.3 120.3C270.3 120.3 270.9 120.4 271.3 120.6C271.7 120.8 271.9 121.2 271.9 121.8C271.9 122.2 271.8 122.6 271.6 122.8C271.4 123 271.1 123.1 270.6 123.2C271.1 123.2 271.5 123.4 271.7 123.6C271.9 123.8 272 124.2 272 124.7C272 125.3 271.8 125.7 271.5 125.9C271.1 126.1 270.5 126.2 269.6 126.2C268.8 126.2 268.1 126.1 267.4 126L267.5 125.4C268.3 125.5 269 125.5 269.6 125.5C270.2 125.5 270.7 125.4 270.9 125.3C271.1 125.2 271.3 124.9 271.3 124.5C271.3 124.1 271.2 123.8 270.9 123.6C270.7 123.4 270.2 123.4 269.6 123.4H268.3V122.8H269.6C270.2 122.8 270.6 122.7 270.8 122.6C271 122.5 271.1 122.2 271.1 121.8C271.1 121.4 271 121.1 270.7 121C270.4 120.9 270 120.8 269.3 120.8C268.7 121 268.2 121.1 267.7 121.1Z" fill="black"/>
<path d="M273.9 121.1L273.8 120.5C275 120.3 275.9 120.2 276.6 120.2C277.2 120.2 277.7 120.3 278 120.6C278.3 120.9 278.5 121.3 278.5 122V126.2H277.9L277.8 125.2C277.5 125.5 277.1 125.7 276.7 126C276.2 126.2 275.8 126.3 275.3 126.3C274.8 126.3 274.4 126.2 274.1 125.9C273.8 125.6 273.7 125.2 273.7 124.7V124C273.7 123.6 273.8 123.2 274.1 123C274.4 122.8 274.7 122.6 275.2 122.6H277.8V122C277.8 121.6 277.7 121.3 277.5 121.1C277.3 120.9 277 120.8 276.5 120.8C275.8 121 274.9 121 273.9 121.1ZM274.3 124.2V124.7C274.3 125.3 274.6 125.7 275.3 125.7C275.7 125.7 276 125.6 276.5 125.4C277 125.2 277.3 125 277.7 124.7V123.3H275.2C274.6 123.4 274.3 123.7 274.3 124.2Z" fill="black"/>
<path d="M285.9 128H285.4L285.3 126.3H280.4V120.5H281.2V125.7H284.4V120.5H285.2V125.7H285.9V128Z" fill="black"/>
<path d="M292.5 126.3H291.8V122.1C291.8 122 291.8 121.7 291.8 121.4C291.7 121.6 291.6 121.8 291.4 122L288.1 126.3H287.5V120.5H288.2V124.7C288.2 125 288.2 125.3 288.2 125.4C288.4 125.1 288.5 124.9 288.6 124.8L291.9 120.5H292.5V126.3Z" fill="black"/>
<path d="M295.7 123.8C294.8 123.7 294.3 123.1 294.3 122.1C294.3 121.6 294.5 121.2 294.8 120.9C295.1 120.6 295.6 120.5 296.4 120.5C297.5 120.5 298.3 120.5 298.9 120.6V126.4H298.2V124.2H296.5C295.8 124.2 295.4 124.4 295.3 124.9L294.8 126.4H294L294.5 124.7C294.7 124.1 295.1 123.9 295.7 123.8ZM298.2 123.5V121.1C297.9 121.1 297.3 121.1 296.4 121.1C295.9 121.1 295.6 121.2 295.4 121.4C295.2 121.6 295.1 121.9 295.1 122.3C295.1 122.7 295.2 123.1 295.4 123.3C295.6 123.5 296 123.6 296.5 123.6H298.2V123.5Z" fill="black"/>
</g>
</svg>
