<svg width="464" height="464" viewBox="0 0 464 464" fill="none" xmlns="http://www.w3.org/2000/svg">
<path d="M428.608 12.752L451.232 35.392L211.392 275.232L188.768 252.608L428.608 12.752Z" fill="#333333" stroke="#333333" stroke-width="16"/>
<path d="M456 168H424V40H296V8H456V168Z" fill="#333333" stroke="#333333" stroke-width="16"/>
<path d="M376 456H56C28.8 456 8 435.2 8 408V88C8 60.8 28.8 40 56 40H232V72H56C46.4 72 40 78.4 40 88V408C40 417.6 46.4 424 56 424H376C385.6 424 392 417.6 392 408V232H424V408C424 435.2 403.2 456 376 456Z" fill="#333333" stroke="#333333" stroke-width="16"/>
</svg>
