<?xml version="1.0" encoding="utf-8"?>
<!-- Generator: Adobe Illustrator 23.0.0, SVG Export Plug-In . SVG Version: 6.00 Build 0)  -->
<svg version="1.1" id="Слой_1" xmlns="http://www.w3.org/2000/svg" xmlns:xlink="http://www.w3.org/1999/xlink" x="0px" y="0px"
	 viewBox="0 0 426.3 423.3" style="enable-background:new 0 0 426.3 423.3;" xml:space="preserve">
<g>
	<path d="M215.7,357.8c-12.1,0-24.3,0-36.2,0c-10.9,0-22.1,0-33.2,0c0-19.1,0-38.5,0-57.2c0-19.7,0-40.1,0-60.2
		c0.1-2.7-0.9-5.5-2.9-7.5c-1.9-2-4.6-3.2-7.3-3.2c-2.8-0.1-5.5,1-7.6,3c-2.1,2-3.2,4.8-3.2,7.5c0,20.2,0,40.6,0,60.4
		c0,18.8,0,38.2,0,57.4c-11.6,0-23.1,0-34.7,0c-23.8,0-48.3,0-72.5,0V42.1c1,0,2,0,3,0c5.9,0,12,0,18.1-0.1c3.3-0.1,6.1-1.5,8.5-2.7
		c0.7-0.4,1.4-0.7,2.1-1l0.1-0.1c6.3-3.3,12.7-6.4,19-9.5c8-3.9,16.2-8,24.2-12.3l0.1-0.1c3.6-2.1,5.4-6.1,4.7-10.5
		c-0.8-4.5-4-8-8.3-8.8h-0.3h-3.5l-0.6,0.3C76.8,1.2,68.4,5.4,60.3,9.5c-5.1,2.6-10.4,5.3-15.5,7.8c-1,0.5-2,1-3,1.5
		c-2.3,1.3-4.4,2.4-6.5,2.3h-0.1h-0.1c-3.7,0-7.5,0-11.1,0c-5.5,0-11.3-0.1-16.8,0.1c-5.4,0-9,4.4-10,8.5L-3,30v340l0.1,0.4
		c1.4,5.2,6,8.6,11,8.3c22.9,0,46,0,69,0c23.2,0,46.2,0,68.9,0c23,0,45.9,0,68.9,0c5.5,0.4,10.5-3.5,11.3-8.7c0.6-3-0.3-6.2-2.5-8.7
		C221.7,358.9,218.7,357.6,215.7,357.8z"/>
	<path d="M277.9,128.6c4.3-3.1,5.9-9.1,3.5-13.7c-1.3-2.7-4-4.7-7.1-5.4c-3.1-0.7-6.2,0-8.4,1.8c-5.8,4.5-11.6,9.2-17.3,13.7
		c-6.6,5.4-13.5,10.9-20.4,16.1c-16,0.1-32.3,0.1-48.1,0.1c-11.1,0-22.5,0-33.8,0V42.1h211.4c0,3.2,0,6.3,0,9.4
		c0,4.1-0.1,8.3,0,12.5c0,2.9,1.3,5.6,3.6,7.6c2.3,2,5.1,2.8,7.9,2.5c2.6-0.2,5.1-1.6,6.9-3.7c1.7-2.1,2.6-4.8,2.5-7.4
		c0.1-10.4,0.1-20.5,0-30.9c0.2-2.9-1-5.8-3.1-8c-2.1-2.1-4.9-3.2-7.7-3H103.9c-2.9-0.2-5.7,1-7.8,3.1c-2.1,2.2-3.2,5.1-2.9,8
		c0.1,2.6,1.3,5.2,3.3,7.1c2.1,1.9,4.8,3,7.5,2.8c5.4,0.1,10.9,0.1,16.1,0c1.7,0,3.4,0,5.1,0V183c-0.2,3,1,6.1,3.5,8.9
		c5.7,7.1,11.3,14.1,17,21.2c4.5,5.7,9.1,11.4,13.6,17c1.7,2.3,4.4,3.9,7.4,4.2c0.4,0,0.8,0.1,1.2,0.1c2.5,0,4.9-0.9,6.7-2.5
		c2.1-1.7,3.5-4.3,3.7-7.2c0.2-3-0.7-5.9-2.6-7.9c-4.7-5.9-9.4-11.8-14.2-17.7c-5.1-6.3-10.1-12.6-15.1-19v-17.8
		c18.6,0.1,37.3,0,55.5,0c9.7,0,19.5,0,29.2,0c2.9,0.1,5.8-0.8,8-2.7C252.1,149.2,265,138.9,277.9,128.6z"/>
	<path d="M378.7,98.6c0.1-2.9,0.2-6.5-2.3-9.4c-1.7-2.2-4.4-3.7-7.4-3.9c-2.9-0.2-5.8,0.7-7.8,2.6c-2.4,2.1-3.6,5.3-3.5,9.2v44.2
		c-11.2,0-22.5,0-33.4,0c-11.9,0-24.3,0-36.3,0.1c-2.8-0.1-5.6,1.1-7.6,3.3c-2,2.1-3,4.8-2.9,7.5c0,2.6,1.2,5.2,3.1,7.1
		c2,2,4.7,3.1,7.4,3c22.8,0,46.4,0,69.6,0.1c0,8.4,0,17,0,25.3c0,9.2,0,18.8,0.1,28.2c-0.2,3.3,1.5,6.5,4.3,8.6
		c1.9,1.4,4.1,2.1,6.3,2.1c1.2,0,2.5-0.2,3.6-0.7c4.3-1.5,7.1-6,6.7-10.8v-115C378.7,99.5,378.7,99,378.7,98.6z"/>
	<path d="M420.5,400.9L420.5,400.9l-42.1-43.8l1-1.4c9.9-13,15.4-29.4,15.4-46c0.1-20.4-7.7-39.6-22-54
		c-14.3-14.5-33.6-22.4-54.2-22.4c-42.2,0-76.4,34.3-76.4,76.4s34.3,76.4,76.4,76.4c14.5,0,28.6-4.1,40.7-11.8l1.4-0.9l42.4,44.1
		c2.2,2.4,5.2,3.6,8.8,3.6c3.2,0,6.1-1.2,8.5-3.4c2.3-2.2,3.6-5.3,3.6-8.5C424,406.1,422.8,403.1,420.5,400.9z M318.6,361.9
		c-28.7,0-52.1-23.4-52.1-52.1c0-28.7,23.4-52.1,52.1-52.1c28.7,0,52.1,23.4,52.1,52.1C370.7,338.5,347.4,361.9,318.6,361.9z"/>
	<path d="M336.2,300.4h-7.5V293c0-5.1-4.2-9.3-9.3-9.3s-9.3,4.2-9.3,9.3v7.5h-7.5c-5.1,0-9.3,4.2-9.3,9.3c0,5.3,4,9.3,9.3,9.3h7.5
		v7.5c0,5.1,4.2,9.3,9.3,9.3s9.3-4.2,9.3-9.3V319h7.5c5.1,0,9.3-4.2,9.3-9.3S341.3,300.4,336.2,300.4z"/>
</g>
</svg>
