<svg xmlns="http://www.w3.org/2000/svg" version="1.1" xmlns:xlink="http://www.w3.org/1999/xlink" xmlns:svgjs="http://svgjs.dev/svgjs" viewBox="0 0 800 800" opacity="0.39"><defs><linearGradient x1="50%" y1="0%" x2="50%" y2="100%" id="uundulate-grad"><stop stop-color="hsl(50, 98%, 60%)" stop-opacity="1" offset="45%"></stop><stop stop-color="hsl(50, 98%, 80%)" stop-opacity="1" offset="100%"></stop></linearGradient></defs><g stroke-width="1" stroke="url(#uundulate-grad)" fill="none"><path d="M1039.9978293215981 -153.9047360087261C1155.4085575850772 202.90355016283365 687.5535934149646 1139.3403751973956 443.3843328784151 1279.7161346698203C199.21507234186583 1420.0918941422456 -16.603892990359896 876.7071956304724 -132.01462125383904 519.8989094589124C-247.42534951731824 163.09062328735263 -354.75642332283456 -292.5878794812427 -110.58716278628526 -432.96363895366767C133.58209775026398 -573.3393984260927 924.5871010581188 -510.713022180286 1039.9978293215981 -153.9047360087261C1155.4085575850772 202.90355016283365 687.5535934149646 1139.3403751973956 443.3843328784151 1279.7161346698203 "></path><path d="M1017.1407596290298 -134.12241746893335C1128.4296761688133 209.94271562507095 677.2838178619188 1112.9353683369698 441.8348880588178 1248.2977078282365C206.38595825571667 1383.660047319504 -1.7251868860724926 859.6819451831509 -113.01410342585598 515.6168120891466C-224.30301996563946 171.55167899514242 -327.80084113524447 -267.8525915317173 -92.35191133214335 -403.2149310229843C143.09701847095766 -538.5772705142512 905.8518430892464 -478.18755056293764 1017.1407596290298 -134.12241746893335C1128.4296761688133 209.94271562507095 677.2838178619188 1112.9353683369698 441.8348880588178 1248.2977078282365 "></path><path d="M994.2837204540397 -114.34006841156258C1101.4508252701276 216.9819116048858 667.0140728264514 1086.5303919941218 440.2854737567984 1216.8793115042306C213.55687468714564 1347.2282310143396 13.153549735793149 842.6567252534073 -94.01355508029474 511.33474523695895C-201.18065989638256 180.01276522051035 -300.8452284300763 -243.11727306461376 -74.11662936042336 -373.4661925747227C152.61196970922947 -503.8151120848316 887.1166156379518 -445.66204842801113 994.2837204540397 -114.34006841156258C1101.4508252701276 216.9819116048858 667.0140728264514 1086.5303919941218 440.2854737567984 1216.8793115042306 "></path><path d="M971.4266507614714 -94.55778038934795C1074.4719438538636 224.02104654954485 656.7442972734057 1060.1253546161179 438.7360289372011 1185.4608541450687C220.72776060099636 1310.7963536740199 28.032255840080552 825.6314442885077 -75.01303725231162 507.05261734961505C-178.0583303447038 188.47379041072213 -273.8896462424862 -218.38201563266648 -55.8813779062815 -343.71751516161737C162.12689042992326 -469.0530146905682 868.3813576690793 -413.13660732824087 971.4266507614714 -94.55778038934795C1074.4719438538636 224.02104654954485 656.7442972734057 1060.1253546161179 438.7360289372011 1185.4608541450687 "></path><path d="M948.5695505513252 -74.77546184955531C1047.4930319200214 231.0602120117818 646.474491202782 1033.7203477556918 437.1865536000255 1154.0424273034848C227.89861599726896 1274.3645068512776 42.910931426789716 808.6061938411865 -56.012549941906684 502.77051997984927C-154.93603131060314 196.93484611851216 -246.93409457247424 -193.64672768314108 -37.64615696971771 -313.9688072309339C171.64178063303882 -434.29088677872676 849.6460691826287 -380.6111357108925 948.5695505513252 -74.77546184955531C1047.4930319200214 231.0602120117818 646.474491202782 1033.7203477556918 437.1865536000255 1154.0424273034848 "></path><path d="M925.7124808587569 -54.99314330976267C1020.5141505037575 238.09937747401875 636.2047156497365 1007.315340895266 435.6371087804281 1122.6240004619006C235.0695019111197 1237.9326600285353 57.78963753107723 791.5809433938648 -37.01203211392357 498.48842261008326C-131.81370175892437 205.39590182630184 -219.9785123848842 -168.91143973361568 -19.41090551557585 -284.22009930025047C181.1567013537325 -399.52875886688525 830.910811213756 -348.0856640935441 925.7124808587569 -54.99314330976267C1020.5141505037575 238.09937747401875 636.2047156497365 1007.315340895266 435.6371087804281 1122.6240004619006 "></path><path d="M902.8554111661886 -35.21088580512628C993.5352690874936 245.13848190109945 625.9349400966908 980.9102729996837 434.0876639608307 1091.2055125851605C242.24038782497053 1201.5007521706373 72.66834363536464 774.5556319113869 -18.011514285940507 494.20626420516123C-108.69137220724559 213.8568964989355 -193.0229301972941 -144.17621281924653 -1.1756540614339883 -254.47145240472327C190.67162207442618 -364.7666919902 812.1755532448835 -315.56025351135196 902.8554111661886 -35.21088580512628C993.5352690874936 245.13848190109945 625.9349400966908 980.9102729996837 434.0876639608307 1091.2055125851605 "></path><path d="M879.9983719911984 -15.42856726533364C966.556418188808 252.1776473633363 615.6651950612234 954.5052661392576 432.5382496588114 1059.7870857435764C249.4113042563995 1165.068905347895 87.54708025723016 757.5303814640652 0.9890340596207352 489.9241668353952C-85.5690121379887 222.3179522067253 -166.06731749212588 -119.44092486972113 17.059627910286054 -224.7227444740398C200.186573312698 -330.00456407835856 793.4403257935892 -283.0347818940036 879.9983719911984 -15.42856726533364C966.556418188808 252.1776473633363 615.6651950612234 954.5052661392576 432.5382496588114 1059.7870857435764 "></path><path d="M857.1413022986303 4.353812309615364C939.5775367725441 259.2168738607295 605.3954195081778 928.100320313988 430.9888048392139 1028.3687199371489C256.5821901702502 1128.6371195603094 102.42578636151757 740.5051920518999 19.989551887603795 485.6421305007857C-62.44668258630992 230.77906894967145 -139.11173530453584 -94.70557588503948 35.29487936442791 -194.9739755082001C209.70149403339178 -295.2423751313608 774.7050678247167 -250.50924924149894 857.1413022986303 4.353812309615364C939.5775367725441 259.2168738607295 605.3954195081778 928.100320313988 430.9888048392139 1028.3687199371489 "></path><path d="M834.2842326060622 24.136069814251755C912.5986553562802 266.2559782878102 595.1256439551322 901.695252418406 429.4393600196165 996.9502320604086C263.75307608410094 1092.2052117024114 117.30449246580497 723.4798805694222 38.99006971558691 481.35997209586367C-39.32435303463109 239.24006362230512 -112.15615311694575 -69.97034897067033 53.53013081856983 -165.2253286126729C219.21641475408546 -260.4803082546756 755.969809855844 -217.9838386593068 834.2842326060622 24.136069814251755C912.5986553562802 266.2559782878102 595.1256439551322 901.695252418406 429.4393600196165 996.9502320604086 "></path><path d="M811.427193431072 43.91835783646627C885.6198044575945 273.295113232469 584.8558989196646 875.2902150404018 427.88994571759724 965.5317747012464C270.9239925155298 1055.773334362091 132.1832290876705 706.4545996045224 57.9906180611481 477.07784420851954C-16.20199296537419 247.7010888125168 -85.20054041177758 -45.235091538723054 71.76541279028982 -135.47665119956764C228.73136599235727 -225.71821086041223 737.2345824045497 -185.45839755953654 811.427193431072 43.91835783646627C885.6198044575945 273.295113232469 584.8558989196646 875.2902150404018 427.88994571759724 965.5317747012464 "></path><path d="M788.5701237385038 63.70070689383715C858.6409230413306 280.3343092122841 574.5861233666191 848.8852386975539 426.34050089799985 934.1133783772405C278.0948784293806 1019.341518056927 147.0619351919579 689.4293796747793 76.99113588913121 472.7957773563319C6.920336586304586 256.16217503788494 -58.244958224187485 -20.499773071619472 90.00066424443173 -105.72791275130606C238.24628671305095 -190.95605243099266 718.499324435677 -152.93289542461002 788.5701237385038 63.70070689383715C858.6409230413306 280.3343092122841 574.5861233666191 848.8852386975539 426.34050089799985 934.1133783772405 "></path><path d="M765.7130540459355 83.48302543362979C831.6620416250666 287.37347467452105 564.3163478135734 822.4802318371278 424.79105607840245 902.6949515356564C285.26576434323147 982.909671234185 161.94064129624525 672.4041292274574 95.99165371711433 468.5136799865661C30.04266613798336 264.6232307456746 -31.289376036597446 4.235514877905928 108.23591569857359 -75.97920482062261C247.76120743374463 -156.19392451915115 699.7640664668047 -120.40742380726164 765.7130540459355 83.48302543362979C831.6620416250666 287.37347467452105 564.3163478135734 822.4802318371278 424.79105607840245 902.6949515356564 "></path><path d="M742.8560148709453 103.2653134558443C804.6831907263809 294.4126096191799 554.046602778106 796.0751944591238 423.2416417763832 871.2764941764945C292.4366807746603 946.4777938938648 176.81937791811083 655.3788482625578 114.99220206267552 464.2315520992221C53.16502620724026 273.0842559358864 -4.333763331429225 28.970772309853203 126.47119767029358 -46.230527407517286C257.27615867201644 -121.43182712488783 681.0288390155101 -87.88198270749137 742.8560148709453 103.2653134558443C804.6831907263809 294.4126096191799 554.046602778106 796.0751944591238 423.2416417763832 871.2764941764945 "></path><path d="M719.9989451783772 123.04766251321507C777.7043093101167 301.45180559899495 543.7768272250604 769.6702181162759 421.69219695678566 839.8580978524883C299.60756668851104 910.0459775887009 191.69808402239818 638.3536283328144 133.99271989065863 459.9494852470343C76.28735575891903 281.54534216125444 22.62181885616087 53.706090776956785 144.7064491244355 -16.48178895925571C266.7910793927101 -86.6696686954682 662.2935810466375 -55.35648057256486 719.9989451783772 123.04766251321507C777.7043093101167 301.45180559899495 543.7768272250604 769.6702181162759 421.69219695678566 839.8580978524883 "></path><path d="M697.1418144506526 142.82995053542965C750.7253668586966 308.4909405436538 533.5069906368585 743.2651807382717 420.142691102032 808.4396404933264C306.77839156720563 873.6141002483807 206.5767290915294 621.3283473679146 152.99317668348544 455.6673573596904C99.40962427544156 290.0063673514661 49.57734000859466 78.44134820890406 162.94163954342116 13.266888453849617C276.30593907824755 -51.907571301204825 643.5582620426087 -22.8310394727946 697.1418144506526 142.82995053542965C750.7253668586966 308.4909405436538 533.5069906368585 743.2651807382717 420.142691102032 808.4396404933264 "></path><path d="M674.2847752756626 162.61226907522234C723.7465159600107 315.53010600589096 523.237245601391 716.8601738778459 418.59327680001275 777.0212136517425C313.9493079986345 837.1822534256389 221.45546571339486 604.3030969205932 171.9937250290467 451.38525998992463C122.53198434469846 298.46742305925613 76.53295271376288 103.17663615842946 181.17692151514115 43.01559638453307C285.82089031651935 -17.14544338936338 624.8230345913144 9.694432144553787 674.2847752756626 162.61226907522234C723.7465159600107 315.53010600589096 523.237245601391 716.8601738778459 418.59327680001275 777.0212136517425 "></path><path d="M651.4277055830943 182.3946181325931C696.7676345437468 322.56930198570603 512.9674700483454 690.4551975349981 417.04383198041535 745.6028173277364C321.1201939124853 800.750437120475 236.33417181768232 587.2778769908497 190.99424285702975 447.10319313773687C145.65431389637723 306.92850928462394 103.48853490135298 127.91195462553299 199.412172969283 72.76433483279459C295.33581103721303 17.61671504005625 606.0877766224418 42.2199342794803 651.4277055830943 182.3946181325931C696.7676345437468 322.56930198570603 512.9674700483454 690.4551975349981 417.04383198041535 745.6028173277364 "></path><path d="M628.5706358905261 202.17690615480768C669.788753127483 329.60843693036475 502.69769449529986 664.050160156994 415.49438716081795 714.1843599685744C328.29107982633604 764.3185597801548 251.21287792196972 570.25259602595 209.99476068501286 442.82106525039285C168.776643448056 315.3895344748357 130.44411708894302 152.64721205748026 217.64742442342492 102.51301224589992C304.85073175790683 52.37881243431957 587.3525186535693 74.74537537925056 628.5706358905261 202.17690615480768C669.788753127483 329.60843693036475 502.69769449529986 664.050160156994 415.49438716081795 714.1843599685744 "></path><path d="M605.7135661979579 221.9591941770222C642.8098717112191 336.6475718750236 492.4279189422541 637.64512277899 413.94494234122044 682.7659026094123C335.46196574018677 727.8866824398345 266.0915840262571 553.2273150610503 228.99527851299592 438.53893736304883C191.89897299973478 323.8505596650475 157.3996992765331 177.38246948942754 235.88267587756678 132.26168965900524C314.3656524786005 87.14090982858295 568.6172606846967 107.27081647902077 605.7135661979579 221.9591941770222C642.8098717112191 336.6475718750236 492.4279189422541 637.64512277899 413.94494234122044 682.7659026094123 "></path><path d="M582.8565117641787 241.7415127168149C615.8310055537443 343.6867373372605 482.15815864799765 611.2401159185639 412.3955127804122 651.3474757678282C342.63286691282667 691.4548356170925 280.9703053893336 536.2020646137287 247.9958115997681 434.25683999328305C215.02131781020262 332.3116153728373 184.35529672291221 202.11775743895294 254.1179425904977 162.0103975896887C323.88058845808325 121.90303774042445 549.8820179746133 139.79628809636915 582.8565117641787 241.7415127168149C615.8310055537443 343.6867373372605 482.15815864799765 611.2401159185639 412.3955127804122 651.3474757678282 "></path><path d="M559.9994573303995 261.52383125660754C588.8521393962693 350.7259027994975 471.8883983537412 584.835109058138 410.84608321960377 619.9290489262441C349.80376808546646 655.0229887943505 295.84902675241005 519.1768141664072 266.9963446865402 429.97474262351716C238.14366262067045 340.7726710806272 211.31089416929137 226.8530453884784 272.3532093034287 191.75910552037215C333.395524437566 156.6651656522659 531.1467752645297 172.32175971371754 559.9994573303995 261.52383125660754C588.8521393962693 350.7259027994975 471.8883983537412 584.835109058138 410.84608321960377 619.9290489262441 "></path><path d="M537.1423876378312 281.3061192788221C561.8732579800053 357.7650377441564 461.61862280069545 558.4300716801339 409.2966384000064 588.5105915670822C356.97465399931724 618.5911114540304 310.72773285669746 502.1515332015076 285.99686251452334 425.69261473617325C261.26599217234923 349.233696270839 238.2664763568814 251.58830282042567 290.58846075757054 221.50778293347747C342.9104451582597 191.42726304652928 512.4115172956572 204.8472008134878 537.1423876378312 281.3061192788221C561.8732579800053 357.7650377441564 461.61862280069545 558.4300716801339 409.2966384000064 588.5105915670822 "></path><path d="M514.285317945263 301.08843781861475C534.8943765637415 364.8042032063933 451.3488472476499 532.025064819708 407.747193580409 557.0921647254982C364.145539913168 582.1592646312884 325.60643896098486 485.1262827541859 304.9973803425064 421.41051736640736C284.388321724028 357.6947519786288 265.2220585444715 276.32359076995107 308.82371221171246 251.25649086416092C352.4253658789534 226.18939095837072 493.6762593267847 237.3726724308362 514.285317945263 301.08843781861475C534.8943765637415 364.8042032063933 451.3488472476499 532.025064819708 407.747193580409 557.0921647254982 "></path><path d="M491.4282635114839 320.8707410996184C507.91551040626666 371.8433534098412 441.07908695339336 505.62004270049283 406.19776401960064 525.673722625125C371.31644108580787 545.7274025497572 340.4851603240613 468.1010170480753 323.9979134292786 417.12840473785246C307.51066653449584 366.1557924276296 292.17765599085067 301.0588634606874 327.0589789246434 281.00518353605526C361.94030185843616 260.95150361142316 474.9410166167012 269.8981287893955 491.4282635114839 320.8707410996184C507.91551040626666 371.8433534098412 441.07908695339336 505.62004270049283 406.19776401960064 525.673722625125 "></path><path d="M468.5711938189156 340.653059639411C480.93662899000265 378.8825188720782 430.8093114003477 479.215035840067 404.6483192000032 494.2552957835411C378.48732699965865 509.2955557270152 355.36386642834873 451.0757666007538 342.99843125726164 412.8463073680866C330.6329960861746 374.6168481354195 319.1332381784407 325.79415141021286 345.2942303787853 310.7538914667387C371.45522257912984 295.7136315232646 456.2057586478286 302.4236004067439 468.5711938189156 340.653059639411C480.93662899000265 378.8825188720782 430.8093114003477 479.215035840067 404.6483192000032 494.2552957835411 "></path><path d="M445.71412412634743 360.43536292041466C453.9577475737388 385.9216690755261 420.53953584730215 452.8100137208519 403.0988743804058 462.836853683168C385.6582129135094 472.8636936454841 370.24257253263613 434.0505008946431 361.99894908524476 408.5641947395317C353.7553256378534 383.0778885844203 346.0888203660308 350.5294241009492 363.52948183292716 340.5025841386331C380.9701432998235 330.47574417631705 437.47050067895606 334.9490567653032 445.71412412634743 360.43536292041466C453.9577475737388 385.9216690755261 420.53953584730215 452.8100137208519 403.0988743804058 462.836853683168 "></path><path d="M422.85706969256825 380.21769671899636C426.9788814162639 392.9608497965521 410.26977555304563 426.405022119215 401.5494448195974 431.41844210037306C392.8291140861492 436.4318620815311 385.1212938957126 417.02526570611064 380.9994821720169 404.2821126285549C376.8776704483212 391.5389595509992 373.0444178124099 375.26472730926366 381.76474854585814 370.2513073281056C390.4850792793063 365.23788734694756 418.73525796887253 367.4745436414407 422.85706969256825 380.21769671899636C426.9788814162639 392.9608497965521 410.26977555304563 426.405022119215 401.5494448195974 431.41844210037306 "></path></g></svg>