<svg xmlns="http://www.w3.org/2000/svg" version="1.1" xmlns:xlink="http://www.w3.org/1999/xlink" xmlns:svgjs="http://svgjs.dev/svgjs" width="800" height="1000" preserveAspectRatio="none" viewBox="0 0 800 1000"><g mask="url(&quot;#SvgjsMask1047&quot;)" fill="none"><path d="M96.99 462.93L153.29 495.43L153.29 560.43L96.99 592.93L40.7 560.43L40.7 495.43zM209.58 72.93L265.87 105.43L265.87 170.43L209.58 202.93L153.29 170.43L153.29 105.43zM153.29 365.43L209.58 397.93L209.58 462.93L153.29 495.43L96.99 462.93L96.99 397.93zM153.29 560.43L209.58 592.93L209.58 657.93L153.29 690.43L96.99 657.93L96.99 592.93zM153.29 950.43L209.58 982.93L209.58 1047.93L153.29 1080.43L96.99 1047.93L96.99 982.93zM265.87 560.43L322.17 592.93L322.17 657.93L265.87 690.43L209.58 657.93L209.58 592.93zM265.87 755.43L322.17 787.93L322.17 852.93L265.87 885.43L209.58 852.93L209.58 787.93zM265.87 950.43L322.17 982.93L322.17 1047.93L265.87 1080.43L209.58 1047.93L209.58 982.93zM378.46 170.43L434.75 202.93L434.75 267.93L378.46 300.43L322.17 267.93L322.17 202.93zM434.75 462.93L491.05 495.43L491.05 560.43L434.75 592.93L378.46 560.43L378.46 495.43zM378.46 560.43L434.75 592.93L434.75 657.93L378.46 690.43L322.17 657.93L322.17 592.93zM434.75 852.93L491.05 885.43L491.05 950.43L434.75 982.93L378.46 950.43L378.46 885.43zM547.34 462.93L603.63 495.43L603.63 560.43L547.34 592.93L491.05 560.43L491.05 495.43zM547.34 657.93L603.63 690.43L603.63 755.43L547.34 787.93L491.05 755.43L491.05 690.43zM491.05 755.43L547.34 787.93L547.34 852.93L491.05 885.43L434.75 852.93L434.75 787.93zM547.34 852.93L603.63 885.43L603.63 950.43L547.34 982.93L491.05 950.43L491.05 885.43zM603.63 950.43L659.93 982.93L659.93 1047.93L603.63 1080.43L547.34 1047.93L547.34 982.93zM716.22 -24.57L772.51 7.93L772.51 72.93L716.22 105.43L659.93 72.93L659.93 7.93zM772.51 72.93L828.81 105.43L828.81 170.43L772.51 202.93L716.22 170.43L716.22 105.43zM716.22 170.43L772.51 202.93L772.51 267.93L716.22 300.43L659.93 267.93L659.93 202.93zM772.51 852.93L828.81 885.43L828.81 950.43L772.51 982.93L716.22 950.43L716.22 885.43zM828.81 170.43L885.1 202.93L885.1 267.93L828.81 300.43L772.51 267.93L772.51 202.93zM885.1 852.93L941.39 885.43L941.39 950.43L885.1 982.93L828.81 950.43L828.81 885.43zM828.81 950.43L885.1 982.93L885.1 1047.93L828.81 1080.43L772.51 1047.93L772.51 982.93z" stroke="rgba(129, 171, 36, 0.21)" stroke-width="2"></path><path d="M199.8 51.77L254.36 83.27L254.36 146.27L199.8 177.77L145.24 146.27L145.24 83.27zM199.8 807.77L254.36 839.27L254.36 902.27L199.8 933.77L145.24 902.27L145.24 839.27zM254.36 524.27L308.93 555.77L308.93 618.77L254.36 650.27L199.8 618.77L199.8 555.77zM363.49 -42.73L418.05 -11.23L418.05 51.77L363.49 83.27L308.93 51.77L308.93 -11.23zM418.05 807.77L472.61 839.27L472.61 902.27L418.05 933.77L363.49 902.27L363.49 839.27zM527.17 51.77L581.73 83.27L581.73 146.27L527.17 177.77L472.61 146.27L472.61 83.27zM472.61 524.27L527.17 555.77L527.17 618.77L472.61 650.27L418.05 618.77L418.05 555.77zM527.17 807.77L581.73 839.27L581.73 902.27L527.17 933.77L472.61 902.27L472.61 839.27zM472.61 902.27L527.17 933.77L527.17 996.77L472.61 1028.27L418.05 996.77L418.05 933.77zM636.29 429.77L690.85 461.27L690.85 524.27L636.29 555.77L581.73 524.27L581.73 461.27zM581.73 713.27L636.29 744.77L636.29 807.77L581.73 839.27L527.17 807.77L527.17 744.77zM745.41 618.77L799.98 650.27L799.98 713.27L745.41 744.77L690.85 713.27L690.85 650.27zM690.85 713.27L745.41 744.77L745.41 807.77L690.85 839.27L636.29 807.77L636.29 744.77zM854.54 996.77L909.1 1028.27L909.1 1091.27L854.54 1122.77L799.98 1091.27L799.98 1028.27z" stroke="rgba(129, 171, 36, 0.35)" stroke-width="2"></path></g><defs><mask id="SvgjsMask1047"><rect width="800" height="1000" fill="#ffffff"></rect></mask></defs></svg>