<svg width="352" height="37" viewBox="0 0 352 37" fill="none" xmlns="http://www.w3.org/2000/svg">
<path d="M1.95 36C1.58333 36 1.28333 35.8833 1.05 35.65C0.816667 35.4167 0.7 35.1167 0.7 34.75V2.25C0.7 1.88333 0.816667 1.58333 1.05 1.35C1.28333 1.11666 1.58333 0.999998 1.95 0.999998H15.2C19.3667 0.999998 22.65 1.96666 25.05 3.9C27.45 5.8 28.65 8.55 28.65 12.15C28.65 14.5833 28.0667 16.6167 26.9 18.25C25.7333 19.8833 24.1667 21.1 22.2 21.9L29.25 34.4C29.35 34.6 29.4 34.7833 29.4 34.95C29.4 35.2167 29.3 35.4667 29.1 35.7C28.9 35.9 28.65 36 28.35 36H22.8C22.2 36 21.75 35.85 21.45 35.55C21.15 35.2167 20.9333 34.9167 20.8 34.65L14.7 23.2H8.65V34.75C8.65 35.1167 8.53333 35.4167 8.3 35.65C8.06667 35.8833 7.76667 36 7.4 36H1.95ZM8.65 16.85H15.05C16.8833 16.85 18.2333 16.4333 19.1 15.6C20 14.7667 20.45 13.6 20.45 12.1C20.45 10.6 20.0167 9.41667 19.15 8.55C18.2833 7.68333 16.9167 7.25 15.05 7.25H8.65V16.85ZM36.032 36C35.6654 36 35.3654 35.8833 35.132 35.65C34.8987 35.4167 34.782 35.1167 34.782 34.75V2.25C34.782 1.88333 34.8987 1.58333 35.132 1.35C35.3654 1.11666 35.6654 0.999998 36.032 0.999998H58.682C59.0487 0.999998 59.3487 1.11666 59.582 1.35C59.8154 1.58333 59.932 1.88333 59.932 2.25V6.25C59.932 6.58333 59.8154 6.86667 59.582 7.1C59.3487 7.33333 59.0487 7.45 58.682 7.45H42.482V15.3H57.582C57.9487 15.3 58.2487 15.4167 58.482 15.65C58.7154 15.8833 58.832 16.1833 58.832 16.55V20.25C58.832 20.5833 58.7154 20.8667 58.482 21.1C58.2487 21.3333 57.9487 21.45 57.582 21.45H42.482V29.55H59.082C59.4487 29.55 59.7487 29.6667 59.982 29.9C60.2154 30.1333 60.332 30.4333 60.332 30.8V34.75C60.332 35.1167 60.2154 35.4167 59.982 35.65C59.7487 35.8833 59.4487 36 59.082 36H36.032ZM67.5262 36C67.1595 36 66.8595 35.8833 66.6262 35.65C66.3928 35.4167 66.2762 35.1167 66.2762 34.75V2.25C66.2762 1.88333 66.3928 1.58333 66.6262 1.35C66.8595 1.11666 67.1595 0.999998 67.5262 0.999998H72.0762C72.5762 0.999998 72.9428 1.11666 73.1762 1.35C73.4095 1.58333 73.5595 1.76666 73.6262 1.9L86.9762 22.75V2.25C86.9762 1.88333 87.0928 1.58333 87.3262 1.35C87.5595 1.11666 87.8428 0.999998 88.1762 0.999998H93.2762C93.6428 0.999998 93.9428 1.11666 94.1762 1.35C94.4095 1.58333 94.5262 1.88333 94.5262 2.25V34.75C94.5262 35.0833 94.4095 35.3833 94.1762 35.65C93.9428 35.8833 93.6428 36 93.2762 36H88.6762C88.1762 36 87.8095 35.8833 87.5762 35.65C87.3762 35.3833 87.2262 35.2 87.1262 35.1L73.8262 14.9V34.75C73.8262 35.1167 73.7095 35.4167 73.4762 35.65C73.2428 35.8833 72.9428 36 72.5762 36H67.5262ZM103.171 36C102.804 36 102.504 35.8833 102.271 35.65C102.037 35.4167 101.921 35.1167 101.921 34.75V2.25C101.921 1.88333 102.037 1.58333 102.271 1.35C102.504 1.11666 102.804 0.999998 103.171 0.999998H115.721C119.054 0.999998 121.837 1.53333 124.071 2.6C126.304 3.63333 128.004 5.16667 129.171 7.2C130.371 9.2 131.004 11.6833 131.071 14.65C131.104 16.1167 131.121 17.4 131.121 18.5C131.121 19.6 131.104 20.8667 131.071 22.3C130.971 25.4 130.354 27.9667 129.221 30C128.087 32.0333 126.421 33.55 124.221 34.55C122.021 35.5167 119.271 36 115.971 36H103.171ZM109.871 29.55H115.721C117.387 29.55 118.754 29.3 119.821 28.8C120.887 28.3 121.671 27.5167 122.171 26.45C122.704 25.35 122.987 23.9333 123.021 22.2C123.054 21.2333 123.071 20.3667 123.071 19.6C123.104 18.8333 123.104 18.0667 123.071 17.3C123.071 16.5333 123.054 15.6833 123.021 14.75C122.954 12.25 122.304 10.4167 121.071 9.25C119.871 8.05 118.004 7.45 115.471 7.45H109.871V29.55ZM138.62 36C138.253 36 137.953 35.8833 137.72 35.65C137.487 35.4167 137.37 35.1167 137.37 34.75V2.25C137.37 1.88333 137.487 1.58333 137.72 1.35C137.953 1.11666 138.253 0.999998 138.62 0.999998H161.27C161.637 0.999998 161.937 1.11666 162.17 1.35C162.403 1.58333 162.52 1.88333 162.52 2.25V6.25C162.52 6.58333 162.403 6.86667 162.17 7.1C161.937 7.33333 161.637 7.45 161.27 7.45H145.07V15.3H160.17C160.537 15.3 160.837 15.4167 161.07 15.65C161.303 15.8833 161.42 16.1833 161.42 16.55V20.25C161.42 20.5833 161.303 20.8667 161.07 21.1C160.837 21.3333 160.537 21.45 160.17 21.45H145.07V29.55H161.67C162.037 29.55 162.337 29.6667 162.57 29.9C162.803 30.1333 162.92 30.4333 162.92 30.8V34.75C162.92 35.1167 162.803 35.4167 162.57 35.65C162.337 35.8833 162.037 36 161.67 36H138.62ZM170.114 36C169.747 36 169.447 35.8833 169.214 35.65C168.981 35.4167 168.864 35.1167 168.864 34.75V2.25C168.864 1.88333 168.981 1.58333 169.214 1.35C169.447 1.11666 169.747 0.999998 170.114 0.999998H183.364C187.531 0.999998 190.814 1.96666 193.214 3.9C195.614 5.8 196.814 8.55 196.814 12.15C196.814 14.5833 196.231 16.6167 195.064 18.25C193.897 19.8833 192.331 21.1 190.364 21.9L197.414 34.4C197.514 34.6 197.564 34.7833 197.564 34.95C197.564 35.2167 197.464 35.4667 197.264 35.7C197.064 35.9 196.814 36 196.514 36H190.964C190.364 36 189.914 35.85 189.614 35.55C189.314 35.2167 189.097 34.9167 188.964 34.65L182.864 23.2H176.814V34.75C176.814 35.1167 176.697 35.4167 176.464 35.65C176.231 35.8833 175.931 36 175.564 36H170.114ZM176.814 16.85H183.214C185.047 16.85 186.397 16.4333 187.264 15.6C188.164 14.7667 188.614 13.6 188.614 12.1C188.614 10.6 188.181 9.41667 187.314 8.55C186.447 7.68333 185.081 7.25 183.214 7.25H176.814V16.85ZM215.231 36C214.865 36 214.565 35.8833 214.331 35.65C214.098 35.4167 213.981 35.1167 213.981 34.75V2.25C213.981 1.88333 214.098 1.58333 214.331 1.35C214.565 1.11666 214.865 0.999998 215.231 0.999998H228.481C232.648 0.999998 235.931 1.96666 238.331 3.9C240.731 5.8 241.931 8.55 241.931 12.15C241.931 14.5833 241.348 16.6167 240.181 18.25C239.015 19.8833 237.448 21.1 235.481 21.9L242.531 34.4C242.631 34.6 242.681 34.7833 242.681 34.95C242.681 35.2167 242.581 35.4667 242.381 35.7C242.181 35.9 241.931 36 241.631 36H236.081C235.481 36 235.031 35.85 234.731 35.55C234.431 35.2167 234.215 34.9167 234.081 34.65L227.981 23.2H221.931V34.75C221.931 35.1167 221.815 35.4167 221.581 35.65C221.348 35.8833 221.048 36 220.681 36H215.231ZM221.931 16.85H228.331C230.165 16.85 231.515 16.4333 232.381 15.6C233.281 14.7667 233.731 13.6 233.731 12.1C233.731 10.6 233.298 9.41667 232.431 8.55C231.565 7.68333 230.198 7.25 228.331 7.25H221.931V16.85ZM261.817 36.5C258.783 36.5 256.167 36 253.967 35C251.767 34 250.05 32.5 248.817 30.5C247.583 28.4667 246.917 25.9167 246.817 22.85C246.783 21.4167 246.767 20 246.767 18.6C246.767 17.1667 246.783 15.7167 246.817 14.25C246.917 11.25 247.583 8.73333 248.817 6.7C250.083 4.63333 251.817 3.08333 254.017 2.05C256.25 1.01667 258.85 0.499998 261.817 0.499998C264.75 0.499998 267.317 1.01667 269.517 2.05C271.75 3.08333 273.5 4.63333 274.767 6.7C276.033 8.73333 276.7 11.25 276.767 14.25C276.833 15.7167 276.867 17.1667 276.867 18.6C276.867 20 276.833 21.4167 276.767 22.85C276.667 25.9167 276 28.4667 274.767 30.5C273.533 32.5 271.817 34 269.617 35C267.417 36 264.817 36.5 261.817 36.5ZM261.817 30.05C263.75 30.05 265.333 29.4667 266.567 28.3C267.833 27.1 268.5 25.2 268.567 22.6C268.633 21.1333 268.667 19.7667 268.667 18.5C268.667 17.2 268.633 15.8333 268.567 14.4C268.533 12.6667 268.217 11.25 267.617 10.15C267.017 9.05 266.217 8.25 265.217 7.75C264.25 7.21667 263.117 6.95 261.817 6.95C260.517 6.95 259.367 7.21667 258.367 7.75C257.367 8.25 256.567 9.05 255.967 10.15C255.4 11.25 255.083 12.6667 255.017 14.4C254.983 15.8333 254.967 17.2 254.967 18.5C254.967 19.7667 254.983 21.1333 255.017 22.6C255.117 25.2 255.783 27.1 257.017 28.3C258.25 29.4667 259.85 30.05 261.817 30.05ZM296.973 36.5C293.94 36.5 291.323 36 289.123 35C286.923 34 285.206 32.5 283.973 30.5C282.74 28.4667 282.073 25.9167 281.973 22.85C281.94 21.4167 281.923 20 281.923 18.6C281.923 17.1667 281.94 15.7167 281.973 14.25C282.073 11.25 282.74 8.73333 283.973 6.7C285.24 4.63333 286.973 3.08333 289.173 2.05C291.406 1.01667 294.006 0.499998 296.973 0.499998C299.906 0.499998 302.473 1.01667 304.673 2.05C306.906 3.08333 308.656 4.63333 309.923 6.7C311.19 8.73333 311.856 11.25 311.923 14.25C311.99 15.7167 312.023 17.1667 312.023 18.6C312.023 20 311.99 21.4167 311.923 22.85C311.823 25.9167 311.156 28.4667 309.923 30.5C308.69 32.5 306.973 34 304.773 35C302.573 36 299.973 36.5 296.973 36.5ZM296.973 30.05C298.906 30.05 300.49 29.4667 301.723 28.3C302.99 27.1 303.656 25.2 303.723 22.6C303.79 21.1333 303.823 19.7667 303.823 18.5C303.823 17.2 303.79 15.8333 303.723 14.4C303.69 12.6667 303.373 11.25 302.773 10.15C302.173 9.05 301.373 8.25 300.373 7.75C299.406 7.21667 298.273 6.95 296.973 6.95C295.673 6.95 294.523 7.21667 293.523 7.75C292.523 8.25 291.723 9.05 291.123 10.15C290.556 11.25 290.24 12.6667 290.173 14.4C290.14 15.8333 290.123 17.2 290.123 18.5C290.123 19.7667 290.14 21.1333 290.173 22.6C290.273 25.2 290.94 27.1 292.173 28.3C293.406 29.4667 295.006 30.05 296.973 30.05ZM319.479 36C319.146 36 318.846 35.8833 318.579 35.65C318.346 35.4167 318.229 35.1167 318.229 34.75V2.25C318.229 1.88333 318.346 1.58333 318.579 1.35C318.846 1.11666 319.146 0.999998 319.479 0.999998H324.129C324.629 0.999998 324.996 1.13333 325.229 1.4C325.496 1.66667 325.679 1.86667 325.779 2L334.979 18.95L344.279 2C344.346 1.86667 344.496 1.66667 344.729 1.4C344.996 1.13333 345.379 0.999998 345.879 0.999998H350.529C350.896 0.999998 351.196 1.11666 351.429 1.35C351.663 1.58333 351.779 1.88333 351.779 2.25V34.75C351.779 35.1167 351.663 35.4167 351.429 35.65C351.196 35.8833 350.896 36 350.529 36H345.429C345.096 36 344.813 35.8833 344.579 35.65C344.346 35.4167 344.229 35.1167 344.229 34.75V14.55L337.879 26.45C337.713 26.75 337.496 27.0167 337.229 27.25C336.963 27.4833 336.613 27.6 336.179 27.6H333.829C333.396 27.6 333.046 27.4833 332.779 27.25C332.513 27.0167 332.296 26.75 332.129 26.45L325.779 14.55V34.75C325.779 35.1167 325.663 35.4167 325.429 35.65C325.196 35.8833 324.913 36 324.579 36H319.479Z" fill="#212127"/>
</svg>
