<?xml version="1.0" encoding="UTF-8"?><svg xmlns="http://www.w3.org/2000/svg" viewBox="0 0 229.49 61.54"><defs><style>.e{fill:#00decc;}.f{fill:#00b5de;}.g{fill:#ff5529;}.h{fill:#ff9640;}.i{fill:#102c53;}</style></defs><g id="a"/><g id="b"><g id="c"><g id="d"><g><g><polygon class="f" points="59.29 5.95 29.58 5.95 25.56 12.4 46.94 25.7 46.94 25.7 46.94 25.71 59.29 5.95"/><polygon class="e" points="25.56 12.4 5.62 0 5.62 29.71 12.5 33.72 46.94 25.7 46.94 25.7 25.56 12.4"/></g><g><polygon class="g" points="47.07 27.82 47.06 27.82 47.07 27.82 47.07 27.82"/><polygon class="g" points="53.47 31.83 47.07 27.82 33.65 49.15 53.47 61.54 53.47 31.83"/><polygon class="h" points="47.07 27.82 47.07 27.82 47.06 27.82 12.35 35.98 0 55.41 29.71 55.41 33.65 49.15 47.07 27.82 47.07 27.82"/></g></g><g><path class="i" d="M107.66,47.8l-.04-18.84-9.24,15.52h-3.27l-9.2-15.12v18.44h-6.82V16.4h6.01l11.75,19.51,11.57-19.51h5.97l.09,31.4h-6.82Z"/><path class="i" d="M121.82,32.1c0-9.33,7.27-16.24,17.18-16.24s17.18,6.86,17.18,16.24-7.31,16.24-17.18,16.24-17.18-6.91-17.18-16.24Zm27.01,0c0-5.97-4.22-10.05-9.82-10.05s-9.82,4.08-9.82,10.05,4.22,10.05,9.82,10.05,9.82-4.08,9.82-10.05Z"/><path class="i" d="M163.59,16.4h14.27c10.27,0,17.32,6.19,17.32,15.7s-7.04,15.7-17.32,15.7h-14.27V16.4Zm13.91,25.44c6.24,0,10.32-3.72,10.32-9.73s-4.08-9.73-10.32-9.73h-6.64v19.47h6.64Z"/><path class="i" d="M221.1,47.8l-7.58-10.9-7.45,10.9h-8.34l11.62-15.97-11.04-15.43h8.25l7.22,10.18,7.09-10.18h7.85l-10.95,15.16,11.71,16.24h-8.39Z"/></g></g></g></g></svg>