<svg width="600" height="338" viewBox="0 0 600 338" fill="none" xmlns="http://www.w3.org/2000/svg">
<rect opacity="0.5" width="600" height="337.5" fill="#D9D9D9" fill-opacity="0.5"/>
<g opacity="0.6">
<path d="M140.207 188V150.182H155.128C157.984 150.182 160.421 150.693 162.44 151.714C164.472 152.724 166.017 154.158 167.075 156.017C168.146 157.864 168.682 160.036 168.682 162.536C168.682 165.047 168.14 167.207 167.057 169.017C165.974 170.814 164.404 172.193 162.348 173.153C160.305 174.114 157.83 174.594 154.925 174.594H144.935V168.168H153.632C155.159 168.168 156.427 167.958 157.436 167.54C158.446 167.121 159.197 166.493 159.689 165.656C160.194 164.819 160.446 163.779 160.446 162.536C160.446 161.28 160.194 160.221 159.689 159.359C159.197 158.498 158.439 157.845 157.418 157.402C156.408 156.946 155.134 156.719 153.595 156.719H148.203V188H140.207ZM160.631 170.79L170.03 188H161.203L152.007 170.79H160.631ZM174.332 188V150.182H199.815V156.774H182.328V165.786H198.504V172.378H182.328V181.408H199.889V188H174.332ZM237.804 150.182V188H230.898L214.445 164.197H214.168V188H206.172V150.182H213.189L229.513 173.966H229.846V150.182H237.804ZM257.817 188H244.411V150.182H257.928C261.732 150.182 265.006 150.939 267.751 152.453C270.497 153.955 272.608 156.116 274.085 158.935C275.575 161.754 276.32 165.127 276.32 169.054C276.32 172.993 275.575 176.379 274.085 179.21C272.608 182.042 270.484 184.214 267.715 185.729C264.957 187.243 261.658 188 257.817 188ZM252.406 181.149H257.484C259.848 181.149 261.836 180.731 263.449 179.893C265.074 179.044 266.293 177.733 267.105 175.96C267.93 174.175 268.342 171.873 268.342 169.054C268.342 166.259 267.93 163.976 267.105 162.203C266.293 160.43 265.08 159.125 263.467 158.288C261.855 157.451 259.867 157.033 257.503 157.033H252.406V181.149ZM282.243 188V150.182H307.726V156.774H290.238V165.786H306.414V172.378H290.238V181.408H307.799V188H282.243ZM314.082 188V150.182H329.003C331.859 150.182 334.296 150.693 336.315 151.714C338.347 152.724 339.892 154.158 340.95 156.017C342.021 157.864 342.557 160.036 342.557 162.536C342.557 165.047 342.015 167.207 340.932 169.017C339.849 170.814 338.279 172.193 336.223 173.153C334.18 174.114 331.705 174.594 328.8 174.594H318.81V168.168H327.507C329.034 168.168 330.302 167.958 331.311 167.54C332.321 167.121 333.072 166.493 333.564 165.656C334.069 164.819 334.321 163.779 334.321 162.536C334.321 161.28 334.069 160.221 333.564 159.359C333.072 158.498 332.314 157.845 331.293 157.402C330.283 156.946 329.009 156.719 327.47 156.719H322.078V188H314.082ZM334.506 170.79L343.905 188H335.078L325.882 170.79H334.506ZM360.243 188V150.182H375.163C378.019 150.182 380.457 150.693 382.476 151.714C384.507 152.724 386.052 154.158 387.111 156.017C388.182 157.864 388.717 160.036 388.717 162.536C388.717 165.047 388.175 167.207 387.092 169.017C386.009 170.814 384.439 172.193 382.383 173.153C380.34 174.114 377.865 174.594 374.96 174.594H364.97V168.168H373.667C375.194 168.168 376.462 167.958 377.471 167.54C378.481 167.121 379.232 166.493 379.724 165.656C380.229 164.819 380.481 163.779 380.481 162.536C380.481 161.28 380.229 160.221 379.724 159.359C379.232 158.498 378.475 157.845 377.453 157.402C376.443 156.946 375.169 156.719 373.63 156.719H368.238V188H360.243ZM380.666 170.79L390.065 188H381.238L372.042 170.79H380.666ZM429.12 169.091C429.12 173.215 428.339 176.723 426.775 179.616C425.224 182.509 423.107 184.719 420.423 186.246C417.752 187.76 414.748 188.517 411.412 188.517C408.051 188.517 405.035 187.754 402.363 186.227C399.692 184.701 397.581 182.491 396.03 179.598C394.478 176.705 393.703 173.203 393.703 169.091C393.703 164.967 394.478 161.458 396.03 158.565C397.581 155.672 399.692 153.469 402.363 151.955C405.035 150.428 408.051 149.665 411.412 149.665C414.748 149.665 417.752 150.428 420.423 151.955C423.107 153.469 425.224 155.672 426.775 158.565C428.339 161.458 429.12 164.967 429.12 169.091ZM421.014 169.091C421.014 166.42 420.614 164.167 419.814 162.332C419.026 160.498 417.912 159.107 416.471 158.159C415.031 157.211 413.344 156.737 411.412 156.737C409.479 156.737 407.792 157.211 406.352 158.159C404.912 159.107 403.791 160.498 402.991 162.332C402.203 164.167 401.809 166.42 401.809 169.091C401.809 171.762 402.203 174.015 402.991 175.849C403.791 177.684 404.912 179.075 406.352 180.023C407.792 180.971 409.479 181.445 411.412 181.445C413.344 181.445 415.031 180.971 416.471 180.023C417.912 179.075 419.026 177.684 419.814 175.849C420.614 174.015 421.014 171.762 421.014 169.091ZM469.796 169.091C469.796 173.215 469.015 176.723 467.451 179.616C465.9 182.509 463.783 184.719 461.099 186.246C458.427 187.76 455.424 188.517 452.087 188.517C448.727 188.517 445.711 187.754 443.039 186.227C440.368 184.701 438.256 182.491 436.705 179.598C435.154 176.705 434.379 173.203 434.379 169.091C434.379 164.967 435.154 161.458 436.705 158.565C438.256 155.672 440.368 153.469 443.039 151.955C445.711 150.428 448.727 149.665 452.087 149.665C455.424 149.665 458.427 150.428 461.099 151.955C463.783 153.469 465.9 155.672 467.451 158.565C469.015 161.458 469.796 164.967 469.796 169.091ZM461.69 169.091C461.69 166.42 461.29 164.167 460.489 162.332C459.702 160.498 458.587 159.107 457.147 158.159C455.707 157.211 454.02 156.737 452.087 156.737C450.155 156.737 448.468 157.211 447.028 158.159C445.587 159.107 444.467 160.498 443.667 162.332C442.879 164.167 442.485 166.42 442.485 169.091C442.485 171.762 442.879 174.015 443.667 175.849C444.467 177.684 445.587 179.075 447.028 180.023C448.468 180.971 450.155 181.445 452.087 181.445C454.02 181.445 455.707 180.971 457.147 180.023C458.587 179.075 459.702 177.684 460.489 175.849C461.29 174.015 461.69 171.762 461.69 169.091ZM475.719 150.182H485.58L495.995 175.591H496.438L506.853 150.182H516.714V188H508.958V163.385H508.644L498.857 187.815H493.576L483.789 163.293H483.475V188H475.719V150.182Z" fill="#212127"/>
<path fill-rule="evenodd" clip-rule="evenodd" d="M87.7053 150.152L76.003 157.313L76.0015 175.157L76 193H99.431H122.862L122.861 175.157L122.86 157.313L111.189 150.161C104.77 146.227 99.4929 143.005 99.4626 143C99.4323 142.995 94.1415 146.214 87.7053 150.152ZM109.304 153.647L119.113 159.66V174.329V188.999H99.431H79.749V174.328V159.658L89.5765 153.647C94.9816 150.34 99.4245 147.635 99.4496 147.635C99.4746 147.635 103.909 150.341 109.304 153.647ZM90.8318 158.509L84.5992 162.33L84.5874 173.764L84.5755 185.197H86.4501H88.3247V180.346V175.494L90.1874 175.497L92.0502 175.499L92.6946 176.049L93.3389 176.599V180.898V185.197H95.2136H97.0883L97.0764 179.91L97.0644 174.623L95.2326 173.07L93.4009 171.518L95.2444 171.505L97.0879 171.492V163.09C97.0879 158.469 97.0826 154.688 97.0762 154.688C97.0697 154.688 94.2597 156.407 90.8318 158.509ZM101.821 169.942V185.197H103.695H105.57V180.346V175.494L107.433 175.495L109.295 175.496L109.938 176.033L110.58 176.57L110.594 180.896L110.608 185.222H112.482H114.356L114.368 179.939L114.38 174.656L112.512 173.087L110.644 171.518L112.489 171.505L114.334 171.492L114.322 166.909L114.31 162.327L108.241 158.604C104.903 156.557 102.093 154.837 101.997 154.783L101.821 154.686V169.942ZM93.3389 166.541V171.443H90.8318H88.3247L88.3266 168.054L88.3285 164.666L90.7985 163.154C92.1571 162.323 93.2844 161.642 93.3038 161.641C93.3231 161.64 93.3389 163.846 93.3389 166.541ZM108.1 163.155L110.561 164.666L110.573 168.079L110.585 171.493H108.077H105.57V166.566C105.57 163.857 105.586 161.641 105.605 161.642C105.624 161.644 106.747 162.324 108.1 163.155Z" fill="#81AB24"/>
</g>
<path opacity="0.6" d="M132.929 205H131.167C131.063 204.493 130.881 204.048 130.621 203.665C130.365 203.281 130.052 202.959 129.683 202.699C129.318 202.434 128.914 202.235 128.469 202.102C128.023 201.97 127.559 201.903 127.077 201.903C126.196 201.903 125.398 202.126 124.683 202.571C123.973 203.016 123.407 203.672 122.986 204.538C122.569 205.405 122.361 206.468 122.361 207.727C122.361 208.987 122.569 210.05 122.986 210.916C123.407 211.783 123.973 212.438 124.683 212.884C125.398 213.329 126.196 213.551 127.077 213.551C127.559 213.551 128.023 213.485 128.469 213.352C128.914 213.22 129.318 213.023 129.683 212.763C130.052 212.498 130.365 212.173 130.621 211.79C130.881 211.402 131.063 210.956 131.167 210.455H132.929C132.796 211.198 132.555 211.863 132.204 212.45C131.854 213.037 131.418 213.537 130.898 213.949C130.377 214.356 129.792 214.666 129.143 214.879C128.499 215.092 127.81 215.199 127.077 215.199C125.836 215.199 124.733 214.896 123.767 214.29C122.801 213.684 122.041 212.822 121.487 211.705C120.933 210.587 120.656 209.261 120.656 207.727C120.656 206.193 120.933 204.867 121.487 203.75C122.041 202.633 122.801 201.771 123.767 201.165C124.733 200.559 125.836 200.256 127.077 200.256C127.81 200.256 128.499 200.362 129.143 200.575C129.792 200.788 130.377 201.101 130.898 201.513C131.418 201.92 131.854 202.417 132.204 203.004C132.555 203.587 132.796 204.252 132.929 205ZM138.758 215.256C138.067 215.256 137.439 215.125 136.876 214.865C136.312 214.6 135.865 214.219 135.534 213.722C135.202 213.22 135.036 212.614 135.036 211.903C135.036 211.278 135.16 210.772 135.406 210.384C135.652 209.991 135.981 209.683 136.393 209.46C136.805 209.238 137.259 209.072 137.757 208.963C138.258 208.849 138.763 208.759 139.269 208.693C139.932 208.608 140.47 208.544 140.882 208.501C141.298 208.454 141.601 208.376 141.791 208.267C141.985 208.158 142.082 207.969 142.082 207.699V207.642C142.082 206.941 141.89 206.397 141.507 206.009C141.128 205.62 140.552 205.426 139.781 205.426C138.981 205.426 138.353 205.601 137.899 205.952C137.444 206.302 137.124 206.676 136.94 207.074L135.349 206.506C135.633 205.843 136.012 205.327 136.485 204.957C136.963 204.583 137.484 204.323 138.048 204.176C138.616 204.025 139.175 203.949 139.724 203.949C140.074 203.949 140.477 203.991 140.931 204.077C141.391 204.157 141.833 204.325 142.259 204.581C142.69 204.837 143.048 205.223 143.332 205.739C143.616 206.255 143.758 206.946 143.758 207.812V215H142.082V213.523H141.997C141.883 213.759 141.694 214.013 141.428 214.283C141.163 214.553 140.811 214.782 140.37 214.972C139.93 215.161 139.392 215.256 138.758 215.256ZM139.014 213.75C139.677 213.75 140.235 213.62 140.69 213.359C141.149 213.099 141.495 212.763 141.727 212.351C141.963 211.939 142.082 211.506 142.082 211.051V209.517C142.011 209.602 141.855 209.68 141.613 209.751C141.376 209.818 141.102 209.877 140.789 209.929C140.481 209.976 140.181 210.019 139.887 210.057C139.598 210.09 139.364 210.118 139.184 210.142C138.749 210.199 138.341 210.291 137.963 210.419C137.588 210.542 137.285 210.729 137.053 210.98C136.826 211.226 136.713 211.562 136.713 211.989C136.713 212.571 136.928 213.011 137.359 213.31C137.794 213.603 138.346 213.75 139.014 213.75ZM148.493 212.528L153.749 204.091H155.681V215H154.005V206.562L148.778 215H146.817V204.091H148.493V212.528ZM152.641 200.455H154.204C154.204 201.222 153.939 201.849 153.408 202.337C152.878 202.824 152.158 203.068 151.249 203.068C150.354 203.068 149.642 202.824 149.111 202.337C148.586 201.849 148.323 201.222 148.323 200.455H149.885C149.885 200.824 149.987 201.148 150.191 201.428C150.399 201.707 150.752 201.847 151.249 201.847C151.746 201.847 152.101 201.707 152.314 201.428C152.532 201.148 152.641 200.824 152.641 200.455ZM157.267 205.653V204.091H166.13V205.653H162.551V215H160.874V205.653H157.267ZM170.024 208.04H173.149C174.427 208.04 175.405 208.364 176.082 209.013C176.759 209.661 177.098 210.483 177.098 211.477C177.098 212.131 176.946 212.725 176.643 213.26C176.34 213.79 175.895 214.214 175.308 214.531C174.721 214.844 174.001 215 173.149 215H168.575V204.091H170.251V213.438H173.149C173.812 213.438 174.356 213.262 174.782 212.912C175.209 212.562 175.422 212.112 175.422 211.562C175.422 210.985 175.209 210.514 174.782 210.149C174.356 209.785 173.812 209.602 173.149 209.602H170.024V208.04ZM178.831 215V204.091H180.507V215H178.831ZM188.035 218.125V213.438H188.944C189.167 213.205 189.359 212.955 189.52 212.685C189.681 212.415 189.82 212.095 189.939 211.726C190.062 211.352 190.166 210.897 190.251 210.362C190.336 209.822 190.412 209.171 190.479 208.409L190.848 204.091H197.78V213.438H199.456V218.125H197.78V215H189.711V218.125H188.035ZM190.848 213.438H196.104V205.653H192.41L192.126 208.409C192.008 209.55 191.861 210.547 191.686 211.399C191.511 212.251 191.231 212.931 190.848 213.438ZM200.715 215V213.438H201.112C201.439 213.438 201.711 213.374 201.929 213.246C202.147 213.113 202.322 212.884 202.455 212.557C202.592 212.225 202.696 211.766 202.767 211.179C202.843 210.587 202.897 209.834 202.931 208.92L203.129 204.091H210.402V215H208.726V205.653H204.72L204.55 209.545C204.512 210.44 204.432 211.229 204.308 211.911C204.19 212.588 204.008 213.156 203.762 213.615C203.52 214.074 203.198 214.42 202.796 214.652C202.393 214.884 201.889 215 201.283 215H200.715ZM220.04 215V205.625H217.142C216.489 205.625 215.975 205.777 215.601 206.08C215.227 206.383 215.04 206.799 215.04 207.33C215.04 207.85 215.208 208.26 215.544 208.558C215.885 208.857 216.352 209.006 216.943 209.006H220.466V210.568H216.943C216.205 210.568 215.568 210.438 215.033 210.178C214.498 209.917 214.086 209.545 213.797 209.062C213.508 208.575 213.364 207.997 213.364 207.33C213.364 206.657 213.515 206.08 213.818 205.597C214.121 205.114 214.555 204.742 215.118 204.482C215.686 204.221 216.361 204.091 217.142 204.091H221.631V215H220.04ZM212.767 215L215.864 209.574H217.682L214.585 215H212.767ZM234.765 215.227C233.742 215.227 232.861 214.986 232.123 214.503C231.384 214.02 230.816 213.355 230.418 212.507C230.02 211.66 229.822 210.691 229.822 209.602C229.822 208.494 230.025 207.517 230.432 206.669C230.844 205.817 231.417 205.152 232.151 204.673C232.89 204.19 233.751 203.949 234.736 203.949C235.503 203.949 236.195 204.091 236.81 204.375C237.426 204.659 237.93 205.057 238.323 205.568C238.716 206.08 238.96 206.676 239.055 207.358H237.378C237.251 206.861 236.966 206.42 236.526 206.037C236.09 205.649 235.503 205.455 234.765 205.455C234.111 205.455 233.538 205.625 233.046 205.966C232.558 206.302 232.177 206.778 231.903 207.393C231.633 208.004 231.498 208.722 231.498 209.545C231.498 210.388 231.63 211.122 231.895 211.747C232.165 212.372 232.544 212.857 233.032 213.203C233.524 213.549 234.102 213.722 234.765 213.722C235.2 213.722 235.596 213.646 235.951 213.494C236.306 213.343 236.607 213.125 236.853 212.841C237.099 212.557 237.274 212.216 237.378 211.818H239.055C238.96 212.462 238.725 213.042 238.351 213.558C237.982 214.07 237.492 214.477 236.881 214.78C236.275 215.078 235.57 215.227 234.765 215.227ZM240.645 205.653V204.091H249.509V205.653H245.93V215H244.253V205.653H240.645ZM251.954 219.091V204.091H253.573V205.824H253.772C253.895 205.634 254.066 205.393 254.284 205.099C254.506 204.801 254.823 204.536 255.235 204.304C255.652 204.067 256.215 203.949 256.926 203.949C257.844 203.949 258.654 204.179 259.355 204.638C260.055 205.097 260.602 205.748 260.995 206.591C261.388 207.434 261.585 208.428 261.585 209.574C261.585 210.729 261.388 211.731 260.995 212.578C260.602 213.421 260.058 214.074 259.362 214.538C258.666 214.998 257.863 215.227 256.954 215.227C256.253 215.227 255.692 215.111 255.271 214.879C254.849 214.643 254.525 214.375 254.298 214.077C254.07 213.774 253.895 213.523 253.772 213.324H253.63V219.091H251.954ZM253.602 209.545C253.602 210.369 253.722 211.096 253.964 211.726C254.205 212.351 254.558 212.841 255.022 213.196C255.486 213.546 256.054 213.722 256.727 213.722C257.427 213.722 258.012 213.537 258.481 213.168C258.954 212.794 259.31 212.292 259.546 211.662C259.788 211.027 259.909 210.322 259.909 209.545C259.909 208.778 259.79 208.087 259.553 207.472C259.321 206.851 258.969 206.361 258.495 206.001C258.026 205.637 257.437 205.455 256.727 205.455C256.045 205.455 255.472 205.627 255.008 205.973C254.544 206.314 254.194 206.792 253.957 207.408C253.72 208.018 253.602 208.731 253.602 209.545ZM268.573 215.227C267.588 215.227 266.724 214.993 265.981 214.524C265.242 214.055 264.665 213.4 264.248 212.557C263.836 211.714 263.63 210.729 263.63 209.602C263.63 208.466 263.836 207.474 264.248 206.626C264.665 205.779 265.242 205.121 265.981 204.652C266.724 204.183 267.588 203.949 268.573 203.949C269.558 203.949 270.42 204.183 271.159 204.652C271.902 205.121 272.48 205.779 272.892 206.626C273.308 207.474 273.517 208.466 273.517 209.602C273.517 210.729 273.308 211.714 272.892 212.557C272.48 213.4 271.902 214.055 271.159 214.524C270.42 214.993 269.558 215.227 268.573 215.227ZM268.573 213.722C269.321 213.722 269.937 213.53 270.42 213.146C270.903 212.763 271.26 212.259 271.492 211.634C271.724 211.009 271.84 210.331 271.84 209.602C271.84 208.873 271.724 208.194 271.492 207.564C271.26 206.934 270.903 206.425 270.42 206.037C269.937 205.649 269.321 205.455 268.573 205.455C267.825 205.455 267.21 205.649 266.727 206.037C266.244 206.425 265.886 206.934 265.654 207.564C265.422 208.194 265.306 208.873 265.306 209.602C265.306 210.331 265.422 211.009 265.654 211.634C265.886 212.259 266.244 212.763 266.727 213.146C267.21 213.53 267.825 213.722 268.573 213.722ZM277.751 212.528L283.007 204.091H284.939V215H283.263V206.562L278.035 215H276.075V204.091H277.751V212.528ZM286.524 205.653V204.091H295.388V205.653H291.808V215H290.132V205.653H286.524ZM301.84 215.227C300.789 215.227 299.883 214.995 299.12 214.531C298.363 214.062 297.778 213.409 297.366 212.571C296.959 211.728 296.755 210.748 296.755 209.631C296.755 208.513 296.959 207.528 297.366 206.676C297.778 205.819 298.351 205.152 299.085 204.673C299.823 204.19 300.685 203.949 301.67 203.949C302.238 203.949 302.799 204.044 303.353 204.233C303.907 204.422 304.411 204.73 304.866 205.156C305.32 205.578 305.683 206.136 305.953 206.832C306.222 207.528 306.357 208.385 306.357 209.403V210.114H297.948V208.665H304.653C304.653 208.049 304.53 207.5 304.284 207.017C304.042 206.534 303.696 206.153 303.247 205.874C302.802 205.594 302.276 205.455 301.67 205.455C301.002 205.455 300.425 205.62 299.937 205.952C299.454 206.278 299.082 206.705 298.822 207.23C298.561 207.756 298.431 208.319 298.431 208.92V209.886C298.431 210.71 298.573 211.409 298.857 211.982C299.146 212.55 299.546 212.983 300.058 213.281C300.569 213.575 301.163 213.722 301.84 213.722C302.281 213.722 302.678 213.66 303.034 213.537C303.393 213.409 303.704 213.22 303.964 212.969C304.224 212.713 304.426 212.396 304.568 212.017L306.187 212.472C306.017 213.021 305.73 213.504 305.328 213.92C304.925 214.332 304.428 214.654 303.836 214.886C303.244 215.114 302.579 215.227 301.84 215.227ZM307.941 215V213.438H308.339C308.666 213.438 308.938 213.374 309.156 213.246C309.374 213.113 309.549 212.884 309.681 212.557C309.819 212.225 309.923 211.766 309.994 211.179C310.07 210.587 310.124 209.834 310.157 208.92L310.356 204.091H317.629V215H315.953V205.653H311.947L311.776 209.545C311.739 210.44 311.658 211.229 311.535 211.911C311.417 212.588 311.234 213.156 310.988 213.615C310.747 214.074 310.425 214.42 310.022 214.652C309.62 214.884 309.115 215 308.509 215H307.941ZM325.278 215.227C324.227 215.227 323.32 214.995 322.558 214.531C321.8 214.062 321.215 213.409 320.803 212.571C320.396 211.728 320.193 210.748 320.193 209.631C320.193 208.513 320.396 207.528 320.803 206.676C321.215 205.819 321.788 205.152 322.522 204.673C323.261 204.19 324.123 203.949 325.107 203.949C325.676 203.949 326.237 204.044 326.791 204.233C327.345 204.422 327.849 204.73 328.303 205.156C328.758 205.578 329.12 206.136 329.39 206.832C329.66 207.528 329.795 208.385 329.795 209.403V210.114H321.386V208.665H328.09C328.09 208.049 327.967 207.5 327.721 207.017C327.48 206.534 327.134 206.153 326.684 205.874C326.239 205.594 325.713 205.455 325.107 205.455C324.44 205.455 323.862 205.62 323.374 205.952C322.892 206.278 322.52 206.705 322.259 207.23C321.999 207.756 321.869 208.319 321.869 208.92V209.886C321.869 210.71 322.011 211.409 322.295 211.982C322.584 212.55 322.984 212.983 323.495 213.281C324.007 213.575 324.601 213.722 325.278 213.722C325.718 213.722 326.116 213.66 326.471 213.537C326.831 213.409 327.141 213.22 327.401 212.969C327.662 212.713 327.863 212.396 328.005 212.017L329.624 212.472C329.454 213.021 329.168 213.504 328.765 213.92C328.363 214.332 327.865 214.654 327.274 214.886C326.682 215.114 326.017 215.227 325.278 215.227ZM334.021 212.528L339.276 204.091H341.208V215H339.532V206.562L334.305 215H332.345V204.091H334.021V212.528ZM338.169 200.455H339.731C339.731 201.222 339.466 201.849 338.936 202.337C338.405 202.824 337.686 203.068 336.776 203.068C335.882 203.068 335.169 202.824 334.639 202.337C334.113 201.849 333.85 201.222 333.85 200.455H335.413C335.413 200.824 335.515 201.148 335.718 201.428C335.927 201.707 336.279 201.847 336.776 201.847C337.274 201.847 337.629 201.707 337.842 201.428C338.06 201.148 338.169 200.824 338.169 200.455ZM351.579 212.528L356.835 204.091H358.767V215H357.091V206.562L351.863 215H349.903V204.091H351.579V212.528ZM372.348 215.199C371.411 215.199 370.575 215.038 369.841 214.716C369.112 214.394 368.532 213.946 368.101 213.374C367.675 212.796 367.443 212.126 367.405 211.364H369.195C369.233 211.832 369.394 212.237 369.678 212.578C369.962 212.914 370.334 213.175 370.793 213.359C371.252 213.544 371.761 213.636 372.32 213.636C372.945 213.636 373.499 213.527 373.982 213.31C374.465 213.092 374.843 212.789 375.118 212.401C375.393 212.012 375.53 211.562 375.53 211.051C375.53 210.516 375.397 210.045 375.132 209.638C374.867 209.226 374.479 208.904 373.968 208.672C373.456 208.44 372.831 208.324 372.093 208.324H370.928V206.761H372.093C372.67 206.761 373.177 206.657 373.612 206.449C374.053 206.241 374.396 205.947 374.642 205.568C374.893 205.189 375.019 204.744 375.019 204.233C375.019 203.741 374.91 203.312 374.692 202.947C374.474 202.583 374.166 202.299 373.769 202.095C373.376 201.892 372.912 201.79 372.377 201.79C371.875 201.79 371.401 201.882 370.956 202.067C370.516 202.247 370.156 202.509 369.877 202.855C369.597 203.196 369.446 203.608 369.422 204.091H367.718C367.746 203.329 367.976 202.661 368.406 202.088C368.837 201.51 369.401 201.061 370.097 200.739C370.798 200.417 371.567 200.256 372.405 200.256C373.305 200.256 374.076 200.438 374.72 200.803C375.364 201.162 375.859 201.638 376.205 202.23C376.55 202.822 376.723 203.461 376.723 204.148C376.723 204.967 376.508 205.665 376.077 206.243C375.651 206.821 375.071 207.221 374.337 207.443V207.557C375.255 207.708 375.973 208.099 376.489 208.729C377.005 209.354 377.263 210.128 377.263 211.051C377.263 211.842 377.048 212.552 376.617 213.182C376.191 213.807 375.608 214.299 374.869 214.659C374.131 215.019 373.29 215.199 372.348 215.199ZM384.316 215.227C383.406 215.227 382.604 214.998 381.908 214.538C381.212 214.074 380.667 213.421 380.274 212.578C379.881 211.731 379.685 210.729 379.685 209.574C379.685 208.428 379.881 207.434 380.274 206.591C380.667 205.748 381.214 205.097 381.915 204.638C382.616 204.179 383.425 203.949 384.344 203.949C385.054 203.949 385.615 204.067 386.027 204.304C386.444 204.536 386.761 204.801 386.979 205.099C387.201 205.393 387.374 205.634 387.497 205.824H387.639V200.455H389.316V215H387.696V213.324H387.497C387.374 213.523 387.199 213.774 386.972 214.077C386.744 214.375 386.42 214.643 385.999 214.879C385.577 215.111 385.016 215.227 384.316 215.227ZM384.543 213.722C385.215 213.722 385.783 213.546 386.247 213.196C386.711 212.841 387.064 212.351 387.306 211.726C387.547 211.096 387.668 210.369 387.668 209.545C387.668 208.731 387.549 208.018 387.313 207.408C387.076 206.792 386.726 206.314 386.262 205.973C385.798 205.627 385.225 205.455 384.543 205.455C383.833 205.455 383.241 205.637 382.767 206.001C382.298 206.361 381.946 206.851 381.709 207.472C381.477 208.087 381.361 208.778 381.361 209.545C381.361 210.322 381.479 211.027 381.716 211.662C381.958 212.292 382.313 212.794 382.781 213.168C383.255 213.537 383.842 213.722 384.543 213.722ZM398.243 215V204.091H406.823V215H405.146V205.653H399.919V215H398.243ZM409.884 219.091V204.091H411.503V205.824H411.702C411.825 205.634 411.995 205.393 412.213 205.099C412.436 204.801 412.753 204.536 413.165 204.304C413.582 204.067 414.145 203.949 414.855 203.949C415.774 203.949 416.584 204.179 417.284 204.638C417.985 205.097 418.532 205.748 418.925 206.591C419.318 207.434 419.514 208.428 419.514 209.574C419.514 210.729 419.318 211.731 418.925 212.578C418.532 213.421 417.987 214.074 417.291 214.538C416.595 214.998 415.793 215.227 414.884 215.227C414.183 215.227 413.622 215.111 413.2 214.879C412.779 214.643 412.455 214.375 412.227 214.077C412 213.774 411.825 213.523 411.702 213.324H411.56V219.091H409.884ZM411.531 209.545C411.531 210.369 411.652 211.096 411.894 211.726C412.135 212.351 412.488 212.841 412.952 213.196C413.416 213.546 413.984 213.722 414.656 213.722C415.357 213.722 415.942 213.537 416.411 213.168C416.884 212.794 417.239 212.292 417.476 211.662C417.718 211.027 417.838 210.322 417.838 209.545C417.838 208.778 417.72 208.087 417.483 207.472C417.251 206.851 416.898 206.361 416.425 206.001C415.956 205.637 415.367 205.455 414.656 205.455C413.975 205.455 413.402 205.627 412.938 205.973C412.474 206.314 412.123 206.792 411.887 207.408C411.65 208.018 411.531 208.731 411.531 209.545ZM426.503 215.227C425.518 215.227 424.654 214.993 423.911 214.524C423.172 214.055 422.594 213.4 422.178 212.557C421.766 211.714 421.56 210.729 421.56 209.602C421.56 208.466 421.766 207.474 422.178 206.626C422.594 205.779 423.172 205.121 423.911 204.652C424.654 204.183 425.518 203.949 426.503 203.949C427.488 203.949 428.35 204.183 429.088 204.652C429.832 205.121 430.409 205.779 430.821 206.626C431.238 207.474 431.446 208.466 431.446 209.602C431.446 210.729 431.238 211.714 430.821 212.557C430.409 213.4 429.832 214.055 429.088 214.524C428.35 214.993 427.488 215.227 426.503 215.227ZM426.503 213.722C427.251 213.722 427.867 213.53 428.35 213.146C428.833 212.763 429.19 212.259 429.422 211.634C429.654 211.009 429.77 210.331 429.77 209.602C429.77 208.873 429.654 208.194 429.422 207.564C429.19 206.934 428.833 206.425 428.35 206.037C427.867 205.649 427.251 205.455 426.503 205.455C425.755 205.455 425.139 205.649 424.656 206.037C424.173 206.425 423.816 206.934 423.584 207.564C423.352 208.194 423.236 208.873 423.236 209.602C423.236 210.331 423.352 211.009 423.584 211.634C423.816 212.259 424.173 212.763 424.656 213.146C425.139 213.53 425.755 213.722 426.503 213.722ZM438.579 215.227C437.528 215.227 436.621 214.995 435.858 214.531C435.101 214.062 434.516 213.409 434.104 212.571C433.697 211.728 433.493 210.748 433.493 209.631C433.493 208.513 433.697 207.528 434.104 206.676C434.516 205.819 435.089 205.152 435.823 204.673C436.562 204.19 437.423 203.949 438.408 203.949C438.976 203.949 439.537 204.044 440.091 204.233C440.645 204.422 441.15 204.73 441.604 205.156C442.059 205.578 442.421 206.136 442.691 206.832C442.961 207.528 443.096 208.385 443.096 209.403V210.114H434.687V208.665H441.391C441.391 208.049 441.268 207.5 441.022 207.017C440.78 206.534 440.435 206.153 439.985 205.874C439.54 205.594 439.014 205.455 438.408 205.455C437.741 205.455 437.163 205.62 436.675 205.952C436.192 206.278 435.821 206.705 435.56 207.23C435.3 207.756 435.17 208.319 435.17 208.92V209.886C435.17 210.71 435.312 211.409 435.596 211.982C435.885 212.55 436.285 212.983 436.796 213.281C437.307 213.575 437.902 213.722 438.579 213.722C439.019 213.722 439.417 213.66 439.772 213.537C440.132 213.409 440.442 213.22 440.702 212.969C440.963 212.713 441.164 212.396 441.306 212.017L442.925 212.472C442.755 213.021 442.468 213.504 442.066 213.92C441.663 214.332 441.166 214.654 440.574 214.886C439.983 215.114 439.317 215.227 438.579 215.227ZM445.645 215V204.091H447.322V208.835H448.43L452.35 204.091H454.509L450.106 209.347L454.566 215H452.407L448.827 210.398H447.322V215H445.645ZM455.763 205.653V204.091H464.626V205.653H461.047V215H459.371V205.653H455.763ZM468.52 208.04H471.645C472.923 208.04 473.901 208.364 474.578 209.013C475.255 209.661 475.594 210.483 475.594 211.477C475.594 212.131 475.442 212.725 475.139 213.26C474.836 213.79 474.391 214.214 473.804 214.531C473.217 214.844 472.497 215 471.645 215H467.071V204.091H468.747V213.438H471.645C472.308 213.438 472.852 213.262 473.279 212.912C473.705 212.562 473.918 212.112 473.918 211.562C473.918 210.985 473.705 210.514 473.279 210.149C472.852 209.785 472.308 209.602 471.645 209.602H468.52V208.04ZM477.327 215V204.091H479.003V215H477.327Z" fill="black"/>
</svg>
